<svg version="1.1" id="Layer_1" xmlns="http://www.w3.org/2000/svg" xmlns:xlink="http://www.w3.org/1999/xlink" x="0px" y="0px"
	 width="100%" viewBox="0 0 1080 1080" enable-background="new 0 0 1080 1080" xml:space="preserve">
<path fill="#6D6DEB" opacity="1.000000" stroke="none" 
	d="
M527.000000,1081.000000 
	C351.353546,1081.000000 176.207092,1081.000000 1.030320,1081.000000 
	C1.030320,721.061768 1.030320,361.123505 1.030320,1.092633 
	C360.896667,1.092633 720.793335,1.092633 1080.844971,1.092633 
	C1080.844971,360.999939 1080.844971,720.999939 1080.844971,1081.000000 
	C896.456360,1081.000000 711.978210,1081.000000 527.000000,1081.000000 
M524.046936,752.334839 
	C525.966797,752.886230 527.856262,753.611145 529.812622,753.954224 
	C534.455933,754.768433 539.550110,756.975647 543.728088,755.863281 
	C583.128052,745.373413 622.365234,734.273071 661.681763,723.466614 
	C664.650391,722.650696 665.973572,721.538330 666.262451,718.235352 
	C670.385132,671.110168 674.692322,624.001282 678.919495,576.885193 
	C683.191223,529.272156 687.434082,481.656586 691.663025,434.039795 
	C692.362793,426.160553 692.926331,418.269226 693.562195,410.265411 
	C591.394409,410.265411 489.970917,410.265411 388.191711,410.265411 
	C388.191711,411.469330 388.117889,412.435791 388.202423,413.388184 
	C390.573578,440.101013 392.950562,466.813293 395.347900,493.523804 
	C398.534363,529.026367 401.766785,564.524902 404.927979,600.029785 
	C408.414185,639.185120 411.871307,678.343201 415.244568,717.508362 
	C415.540924,720.949463 416.727905,722.638611 420.289825,723.610657 
	C454.647552,732.986877 488.944794,742.584656 524.046936,752.334839 
M555.433228,324.997742 
	C551.678772,324.997742 547.924316,324.997742 544.200256,324.997742 
	C544.200256,344.741394 544.200256,363.671722 544.200256,382.715881 
	C550.538635,382.715881 556.559082,382.715881 563.108154,382.715881 
	C563.108154,373.738281 563.108154,365.208801 563.108154,356.679321 
	C563.414856,356.596710 563.721619,356.514099 564.028320,356.431488 
	C568.080627,362.540466 572.132874,368.649475 576.426819,375.122772 
	C580.894165,368.367920 584.973938,362.199219 589.053650,356.030518 
	C589.422546,356.129608 589.791382,356.228668 590.160278,356.327728 
	C590.160278,365.185455 590.160278,374.043182 590.160278,382.862122 
	C596.752197,382.862122 602.687805,382.862122 608.878540,382.862122 
	C608.878540,363.517822 608.878540,344.483002 608.878540,324.998047 
	C603.381897,324.998047 598.239075,325.183472 593.118042,324.928802 
	C590.024719,324.774963 588.287048,325.915100 586.800232,328.551788 
	C583.670837,334.101166 580.219299,339.468872 576.576172,345.441956 
	C573.410156,340.252106 570.338867,336.039276 568.148499,331.409698 
	C565.658813,326.147522 562.064026,323.926575 555.433228,324.997742 
M473.060852,380.285339 
	C473.060852,362.025787 473.060852,343.766235 473.060852,325.252960 
	C466.393585,325.252960 460.309875,325.252960 453.562958,325.252960 
	C453.562958,331.499268 453.562958,337.562408 453.562958,343.735352 
	C447.357391,343.735352 441.819977,343.735352 435.825287,343.735352 
	C435.825287,337.399597 435.825287,331.469574 435.825287,325.386688 
	C429.167084,325.386688 422.982483,325.386688 416.827576,325.386688 
	C416.827576,344.795044 416.827576,363.805573 416.827576,382.775360 
	C423.386017,382.775360 429.448517,382.775360 436.110382,382.775360 
	C436.110382,376.324707 436.110382,370.260620 436.110382,364.339478 
	C442.264069,364.339478 447.796295,364.339478 453.781067,364.339478 
	C453.781067,370.774567 453.781067,376.724396 453.781067,383.109161 
	C459.877808,383.109161 465.512115,383.168762 471.141357,383.027161 
	C471.781982,383.011017 472.394196,381.865295 473.060852,380.285339 
M481.662323,328.652100 
	C481.662323,333.722015 481.662323,338.791931 481.662323,344.396667 
	C487.855743,344.396667 493.093140,344.396667 498.899536,344.396667 
	C498.899536,357.521545 498.899536,370.084717 498.899536,382.807434 
	C505.536835,382.807434 511.581207,382.807434 518.170593,382.807434 
	C518.170593,369.893677 518.170593,357.327301 518.170593,344.061157 
	C524.076050,344.061157 529.447998,344.061157 534.915527,344.061157 
	C534.915527,337.423126 534.915527,331.504059 534.915527,325.036957 
	C517.711914,325.036957 500.784790,325.003906 483.859161,325.149048 
	C483.126923,325.155334 482.408783,326.801941 481.662323,328.652100 
M619.000000,358.500000 
	C619.000000,366.599854 619.000000,374.699677 619.000000,382.780823 
	C634.974792,382.780823 650.207336,382.780823 665.472168,382.780823 
	C665.472168,376.343506 665.472168,370.300079 665.472168,363.862915 
	C656.426880,363.862915 647.805603,363.862915 638.463623,363.862915 
	C638.463623,350.758453 638.463623,338.041382 638.463623,325.311035 
	C631.635498,325.311035 625.546875,325.311035 619.000000,325.311035 
	C619.000000,336.243805 619.000000,346.871918 619.000000,358.500000 
z"/>
<path fill="#FEFEFF" opacity="1.000000" stroke="none" 
	d="
M523.653137,752.226990 
	C488.944794,742.584656 454.647552,732.986877 420.289825,723.610657 
	C416.727905,722.638611 415.540924,720.949463 415.244568,717.508362 
	C411.871307,678.343201 408.414185,639.185120 404.927979,600.029785 
	C401.766785,564.524902 398.534363,529.026367 395.347900,493.523804 
	C392.950562,466.813293 390.573578,440.101013 388.202423,413.388184 
	C388.117889,412.435791 388.191711,411.469330 388.191711,410.265411 
	C489.970917,410.265411 591.394409,410.265411 693.562195,410.265411 
	C692.926331,418.269226 692.362793,426.160553 691.663025,434.039795 
	C687.434082,481.656586 683.191223,529.272156 678.919495,576.885193 
	C674.692322,624.001282 670.385132,671.110168 666.262451,718.235352 
	C665.973572,721.538330 664.650391,722.650696 661.681763,723.466614 
	C622.365234,734.273071 583.128052,745.373413 543.728088,755.863281 
	C539.550110,756.975647 534.455933,754.768433 529.812622,753.954224 
	C527.856262,753.611145 525.966797,752.886230 523.653137,752.226990 
M540.083130,551.226746 
	C523.505249,551.226746 506.927368,551.226746 490.220551,551.226746 
	C489.023956,537.756409 487.909271,525.208191 486.731476,511.949402 
	C535.854187,511.949402 584.369385,511.949402 633.214355,511.949402 
	C634.340881,498.968964 635.412415,486.623108 636.481628,474.303284 
	C572.222534,474.303284 508.714600,474.303284 444.903412,474.303284 
	C448.355682,512.887695 451.763245,550.972900 455.213715,589.537476 
	C457.660675,589.537476 459.633820,589.537415 461.606995,589.537415 
	C483.598450,589.537476 505.589935,589.559082 527.581299,589.519714 
	C532.066467,589.511719 536.551270,589.274414 541.933838,589.396118 
	C557.141907,589.396118 572.350037,589.396118 587.829163,589.396118 
	C586.431824,605.477112 585.090149,620.447327 583.867126,635.427124 
	C583.648071,638.110535 582.716187,639.508789 579.913513,640.225342 
	C567.664612,643.356873 555.502808,646.828613 543.254517,649.962402 
	C541.294861,650.463806 538.963562,650.236389 536.962036,649.726196 
	C527.935669,647.424866 518.964172,644.907410 509.976624,642.454468 
	C497.784790,639.127197 497.845032,639.117676 496.905426,626.226379 
	C496.488312,620.503601 495.779572,614.802124 495.218658,609.243530 
	C482.070251,609.243530 469.672516,609.243530 457.265198,609.243530 
	C457.265198,610.976074 457.162750,612.306335 457.280670,613.616760 
	C458.817474,630.697571 460.493591,647.766968 461.851135,664.861755 
	C462.110962,668.133484 463.308289,669.343689 466.342743,670.171082 
	C489.936554,676.604736 513.466431,683.272827 537.061951,689.700012 
	C539.329651,690.317627 542.054932,690.325500 544.321960,689.710327 
	C567.441467,683.436646 590.467834,676.815430 613.628357,670.700745 
	C618.268188,669.475830 619.522034,667.171387 619.885315,662.873352 
	C622.914429,627.036438 626.111206,591.213806 629.237854,555.385071 
	C629.346985,554.134216 629.251709,552.865479 629.251709,551.391418 
	C599.569153,551.391418 570.288879,551.391418 540.083130,551.226746 
z"/>
<path fill="#FEFEFF" opacity="1.000000" stroke="none" 
	d="
M555.912476,324.997742 
	C562.064026,323.926575 565.658813,326.147522 568.148499,331.409698 
	C570.338867,336.039276 573.410156,340.252106 576.576172,345.441956 
	C580.219299,339.468872 583.670837,334.101166 586.800232,328.551788 
	C588.287048,325.915100 590.024719,324.774963 593.118042,324.928802 
	C598.239075,325.183472 603.381897,324.998047 608.878540,324.998047 
	C608.878540,344.483002 608.878540,363.517822 608.878540,382.862122 
	C602.687805,382.862122 596.752197,382.862122 590.160278,382.862122 
	C590.160278,374.043182 590.160278,365.185455 590.160278,356.327728 
	C589.791382,356.228668 589.422546,356.129608 589.053650,356.030518 
	C584.973938,362.199219 580.894165,368.367920 576.426819,375.122772 
	C572.132874,368.649475 568.080627,362.540466 564.028320,356.431488 
	C563.721619,356.514099 563.414856,356.596710 563.108154,356.679321 
	C563.108154,365.208801 563.108154,373.738281 563.108154,382.715881 
	C556.559082,382.715881 550.538635,382.715881 544.200256,382.715881 
	C544.200256,363.671722 544.200256,344.741394 544.200256,324.997742 
	C547.924316,324.997742 551.678772,324.997742 555.912476,324.997742 
z"/>
<path fill="#FDFDFF" opacity="1.000000" stroke="none" 
	d="
M473.040222,380.764343 
	C472.394196,381.865295 471.781982,383.011017 471.141357,383.027161 
	C465.512115,383.168762 459.877808,383.109161 453.781067,383.109161 
	C453.781067,376.724396 453.781067,370.774567 453.781067,364.339478 
	C447.796295,364.339478 442.264069,364.339478 436.110382,364.339478 
	C436.110382,370.260620 436.110382,376.324707 436.110382,382.775360 
	C429.448517,382.775360 423.386017,382.775360 416.827576,382.775360 
	C416.827576,363.805573 416.827576,344.795044 416.827576,325.386688 
	C422.982483,325.386688 429.167084,325.386688 435.825287,325.386688 
	C435.825287,331.469574 435.825287,337.399597 435.825287,343.735352 
	C441.819977,343.735352 447.357391,343.735352 453.562958,343.735352 
	C453.562958,337.562408 453.562958,331.499268 453.562958,325.252960 
	C460.309875,325.252960 466.393585,325.252960 473.060852,325.252960 
	C473.060852,343.766235 473.060852,362.025787 473.040222,380.764343 
z"/>
<path fill="#FFFFFF" opacity="1.000000" stroke="none" 
	d="
M481.673218,328.168274 
	C482.408783,326.801941 483.126923,325.155334 483.859161,325.149048 
	C500.784790,325.003906 517.711914,325.036957 534.915527,325.036957 
	C534.915527,331.504059 534.915527,337.423126 534.915527,344.061157 
	C529.447998,344.061157 524.076050,344.061157 518.170593,344.061157 
	C518.170593,357.327301 518.170593,369.893677 518.170593,382.807434 
	C511.581207,382.807434 505.536835,382.807434 498.899536,382.807434 
	C498.899536,370.084717 498.899536,357.521545 498.899536,344.396667 
	C493.093140,344.396667 487.855743,344.396667 481.662323,344.396667 
	C481.662323,338.791931 481.662323,333.722015 481.673218,328.168274 
z"/>
<path fill="#FFFFFF" opacity="1.000000" stroke="none" 
	d="
M619.000000,358.000000 
	C619.000000,346.871918 619.000000,336.243805 619.000000,325.311035 
	C625.546875,325.311035 631.635498,325.311035 638.463623,325.311035 
	C638.463623,338.041382 638.463623,350.758453 638.463623,363.862915 
	C647.805603,363.862915 656.426880,363.862915 665.472168,363.862915 
	C665.472168,370.300079 665.472168,376.343506 665.472168,382.780823 
	C650.207336,382.780823 634.974792,382.780823 619.000000,382.780823 
	C619.000000,374.699677 619.000000,366.599854 619.000000,358.000000 
z"/>
<path fill="#6E6EEB" opacity="1.000000" stroke="none" 
	d="
M541.008667,551.391418 
	C570.288879,551.391418 599.569153,551.391418 629.251709,551.391418 
	C629.251709,552.865479 629.346985,554.134216 629.237854,555.385071 
	C626.111206,591.213806 622.914429,627.036438 619.885315,662.873352 
	C619.522034,667.171387 618.268188,669.475830 613.628357,670.700745 
	C590.467834,676.815430 567.441467,683.436646 544.321960,689.710327 
	C542.054932,690.325500 539.329651,690.317627 537.061951,689.700012 
	C513.466431,683.272827 489.936554,676.604736 466.342743,670.171082 
	C463.308289,669.343689 462.110962,668.133484 461.851135,664.861755 
	C460.493591,647.766968 458.817474,630.697571 457.280670,613.616760 
	C457.162750,612.306335 457.265198,610.976074 457.265198,609.243530 
	C469.672516,609.243530 482.070251,609.243530 495.218658,609.243530 
	C495.779572,614.802124 496.488312,620.503601 496.905426,626.226379 
	C497.845032,639.117676 497.784790,639.127197 509.976624,642.454468 
	C518.964172,644.907410 527.935669,647.424866 536.962036,649.726196 
	C538.963562,650.236389 541.294861,650.463806 543.254517,649.962402 
	C555.502808,646.828613 567.664612,643.356873 579.913513,640.225342 
	C582.716187,639.508789 583.648071,638.110535 583.867126,635.427124 
	C585.090149,620.447327 586.431824,605.477112 587.829163,589.396118 
	C572.350037,589.396118 557.141907,589.396118 541.476746,588.858765 
	C541.015991,576.011353 541.012329,563.701416 541.008667,551.391418 
z"/>
<path fill="#6F6FEB" opacity="1.000000" stroke="none" 
	d="
M540.545898,551.309082 
	C541.012329,563.701416 541.015991,576.011353 541.027954,588.732056 
	C536.551270,589.274414 532.066467,589.511719 527.581299,589.519714 
	C505.589935,589.559082 483.598450,589.537476 461.606995,589.537415 
	C459.633820,589.537415 457.660675,589.537476 455.213715,589.537476 
	C451.763245,550.972900 448.355682,512.887695 444.903412,474.303284 
	C508.714600,474.303284 572.222534,474.303284 636.481628,474.303284 
	C635.412415,486.623108 634.340881,498.968964 633.214355,511.949402 
	C584.369385,511.949402 535.854187,511.949402 486.731476,511.949402 
	C487.909271,525.208191 489.023956,537.756409 490.220551,551.226746 
	C506.927368,551.226746 523.505249,551.226746 540.545898,551.309082 
z"/>
</svg>