<svg version="1.1" id="Layer_1" xmlns="http://www.w3.org/2000/svg" xmlns:xlink="http://www.w3.org/1999/xlink" x="0px" y="0px"
	 width="100%" viewBox="0 0 1080 1080" enable-background="new 0 0 1080 1080" xml:space="preserve">
<path fill="#6D6DEB" opacity="1.000000" stroke="none" 
	d="
M634.000000,1081.000000 
	C422.691010,1081.000000 211.881989,1081.000000 1.036494,1081.000000 
	C1.036494,721.065857 1.036494,361.131744 1.036494,1.098807 
	C360.892548,1.098807 720.785156,1.098807 1080.838867,1.098807 
	C1080.838867,360.999939 1080.838867,720.999939 1080.838867,1081.000000 
	C932.131287,1081.000000 783.315613,1081.000000 634.000000,1081.000000 
M606.450745,653.048096 
	C601.020813,654.399109 595.590881,655.750183 589.720764,657.210754 
	C590.465027,660.342712 591.018066,662.669739 591.610352,665.162292 
	C595.985168,664.197754 599.817383,662.880066 603.720459,662.617859 
	C608.116638,662.322571 612.740845,662.328796 616.964294,663.396606 
	C621.499695,664.543335 623.715820,670.527344 622.321716,676.011841 
	C621.238159,680.274963 617.413757,678.143005 614.823242,678.763489 
	C609.052429,680.145813 602.897339,680.494995 597.494751,682.715210 
	C588.529175,686.399719 584.851501,695.470215 587.219727,705.147705 
	C589.053711,712.641724 595.726196,717.567749 605.325623,716.617615 
	C611.679138,715.988708 617.811951,713.129883 624.390625,711.165710 
	C624.612976,711.893433 625.168152,713.710266 625.729065,715.546021 
	C628.891479,715.546021 631.802124,715.546021 634.921143,715.546021 
	C634.921143,699.124023 635.275085,682.994324 634.748047,666.893433 
	C634.535400,660.396484 629.977173,655.672180 623.610291,654.264221 
	C618.343872,653.099548 612.760620,653.368042 606.450745,653.048096 
M476.658356,686.166138 
	C470.459656,692.499207 469.437958,699.968445 472.773438,707.807800 
	C476.081726,715.583374 483.264404,717.357422 490.689178,716.655640 
	C495.308624,716.218994 499.779053,713.958191 504.249268,712.331665 
	C505.710846,711.799866 506.960846,710.686523 508.409454,709.775085 
	C510.427246,716.593567 511.653625,717.139221 519.605164,714.988464 
	C519.605164,699.440369 519.866638,683.823303 519.479248,668.222351 
	C519.319519,661.790649 515.682678,656.745544 509.351837,654.654968 
	C497.382385,650.702393 485.912750,652.995789 474.325195,657.815125 
	C475.080994,660.615723 475.698639,662.904419 476.217041,664.825378 
	C482.318207,663.813965 487.681488,662.449829 493.107025,662.124512 
	C504.311005,661.452820 508.420990,666.530029 506.357117,678.164185 
	C496.364075,679.270325 485.668732,678.374939 476.658356,686.166138 
M555.042175,402.545166 
	C564.766418,392.615540 572.656494,381.673340 574.545288,367.391144 
	C575.628906,359.197083 572.848816,349.754578 568.074585,346.122131 
	C571.574707,362.565521 566.315430,376.153870 555.006897,387.719055 
	C551.521851,391.283264 547.732422,394.563049 543.955200,397.825928 
	C533.883484,406.526428 523.304382,414.693085 513.748718,423.922791 
	C503.527222,433.795654 502.563599,445.297882 509.647400,457.626282 
	C516.891541,470.233826 527.197693,480.150146 538.149048,489.461670 
	C538.236511,489.536011 538.610046,489.273987 539.372559,488.940399 
	C534.573303,481.679260 529.616699,474.622803 525.120544,467.284271 
	C515.983826,452.371552 516.997559,440.286224 528.470642,427.059631 
	C531.618164,423.430969 535.344604,420.291504 538.906555,417.038330 
	C544.070557,412.321991 549.326599,407.706421 555.042175,402.545166 
M546.104187,670.203186 
	C544.736694,665.750671 543.520569,661.242188 541.905701,656.881287 
	C541.446228,655.640259 539.907410,654.087708 538.724426,653.959167 
	C535.174133,653.573364 531.555054,653.820190 527.454651,653.820190 
	C528.088562,656.198608 528.455688,657.778137 528.929993,659.324768 
	C533.562134,674.429199 538.221924,689.525085 542.853821,704.629517 
	C546.360352,716.064209 546.347168,715.954956 558.020447,715.930054 
	C560.990173,715.923706 562.636169,715.014465 563.572754,712.240601 
	C568.034790,699.025696 572.771606,685.899658 576.995056,672.609924 
	C578.882568,666.670227 579.794617,660.420593 581.139526,654.355835 
	C580.150635,654.082458 579.839478,653.938782 579.519897,653.916321 
	C567.820557,653.091309 568.234680,653.179749 565.869507,664.459778 
	C563.256287,676.922424 559.782227,689.204651 556.683105,701.565430 
	C556.291809,701.468506 555.900452,701.371521 555.509155,701.274536 
	C552.455383,691.172424 549.401611,681.070251 546.104187,670.203186 
M473.679718,590.128296 
	C470.146790,589.204285 466.522003,588.526550 463.117859,587.257141 
	C461.290802,586.575867 459.842865,584.877808 458.223816,583.638611 
	C459.769867,582.227234 461.084442,580.190491 462.903656,579.517273 
	C469.340729,577.135071 475.950317,575.219055 482.883179,573.002014 
	C480.516052,572.809998 478.379333,572.350647 476.292145,572.515991 
	C466.403961,573.299744 456.970001,575.792480 448.262848,580.661133 
	C446.536072,581.626648 444.809906,582.719666 443.382751,584.070129 
	C439.624298,587.626648 440.168884,590.771973 445.008148,592.791260 
	C447.587250,593.867554 450.389191,594.544739 453.156311,595.014771 
	C484.285034,600.302673 515.655945,602.188416 547.171936,600.775574 
	C569.972473,599.753540 592.683228,597.542603 614.429016,589.924866 
	C618.590759,588.467041 622.595947,586.169983 626.182861,583.580627 
	C629.353638,581.291626 628.739075,578.867432 626.265198,577.219360 
	C623.910706,579.573242 622.044250,582.235962 619.497925,583.770203 
	C616.720276,585.443909 613.384644,586.671265 610.167786,587.057861 
	C590.534363,589.417236 570.912598,592.265930 551.196838,593.450195 
	C525.601807,594.987610 499.944275,594.625793 473.679718,590.128296 
M458.506622,723.952087 
	C459.622559,718.789124 461.622681,713.640015 461.703979,708.460815 
	C462.090820,683.820679 461.958740,659.172302 461.991394,634.526855 
	C461.992432,633.744141 461.776154,632.961121 461.605042,631.796143 
	C459.449219,631.796143 457.468323,631.796997 455.487427,631.796021 
	C448.439514,631.792542 448.460602,631.792358 448.432373,638.708008 
	C448.334503,662.684326 448.228455,686.660645 448.107727,710.636902 
	C448.074860,717.165344 445.712463,722.638000 440.563751,726.786438 
	C438.932312,728.100769 437.268890,729.375427 435.481110,730.777161 
	C436.288239,731.820374 437.008423,732.533447 437.471802,733.386047 
	C440.157837,738.328491 443.790161,738.149475 447.503479,734.927490 
	C451.229431,731.694397 454.599335,728.051025 458.506622,723.952087 
M577.798645,414.211578 
	C584.749634,409.708221 591.700623,405.204895 598.651611,400.701569 
	C594.133911,401.455933 589.843323,402.682312 585.736145,404.358398 
	C572.580078,409.727417 559.765259,415.710358 549.895874,426.433289 
	C539.784729,437.418823 538.221863,449.676910 545.560120,462.674561 
	C547.590698,466.271179 550.218994,469.558624 552.791077,472.815735 
	C559.272095,481.023071 559.794861,487.332397 554.518311,496.184784 
	C554.065735,496.944061 553.673096,497.739105 553.252625,498.517578 
	C553.671692,498.869812 554.090759,499.222046 554.509827,499.574310 
	C558.765381,495.292816 563.536560,491.404083 567.162415,486.643066 
	C573.496033,478.326569 572.899109,470.230438 566.489258,461.923767 
	C564.255188,459.028564 562.133606,456.020660 560.234863,452.897461 
	C554.414917,443.324219 554.748535,436.240295 562.338196,427.884491 
	C566.777222,422.997406 572.236511,419.037048 577.798645,414.211578 
M558.036316,507.929291 
	C537.414734,508.297119 516.793945,508.790588 496.170868,508.921783 
	C492.266815,508.946655 488.273865,507.805939 484.470764,506.694000 
	C481.601929,505.855255 481.359924,503.833679 483.902771,502.041809 
	C485.386536,500.996246 487.006409,500.030212 488.706268,499.425476 
	C494.792236,497.260406 500.938507,495.264862 508.069672,492.866241 
	C492.568970,493.040466 479.137299,497.050812 466.378357,503.509125 
	C464.944244,504.235016 463.139923,506.131287 463.208618,507.392090 
	C463.278046,508.665985 465.283478,510.538208 466.754028,510.910278 
	C473.179474,512.536133 479.660950,514.328186 486.226746,514.943665 
	C513.676636,517.516968 541.096802,516.944336 568.393005,512.853577 
	C577.850952,511.436188 587.368530,510.031097 595.258789,503.297516 
	C582.965820,504.837097 570.961060,506.340607 558.036316,507.929291 
M527.075500,575.096130 
	C545.978577,576.028137 564.380432,573.996887 582.634827,565.994263 
	C579.510925,564.485779 577.035034,563.548767 574.834412,562.171814 
	C570.703491,559.587097 566.631470,558.844238 561.652588,559.852539 
	C543.690247,563.490173 525.620850,563.292297 507.584900,560.055359 
	C504.195862,559.447144 501.189056,558.510010 502.787201,553.608093 
	C501.244354,554.210266 500.143097,554.356689 499.442108,554.964600 
	C496.930267,557.143188 494.553986,559.477905 492.126404,561.753601 
	C494.447845,564.144653 496.373016,567.835144 499.164124,568.686340 
	C507.989410,571.377930 517.138733,573.007202 527.075500,575.096130 
M523.850586,545.196289 
	C545.122192,545.640015 566.085754,543.773743 587.058960,537.355347 
	C580.904724,532.838867 575.784302,529.956543 567.981018,531.585205 
	C546.664062,536.034607 524.987549,536.203552 503.358795,533.559998 
	C500.702637,533.235413 497.830536,532.106628 495.795593,530.446838 
	C494.893280,529.710815 495.827209,526.723572 495.935913,524.595581 
	C494.820160,525.019958 493.547882,525.188538 492.706543,525.880859 
	C489.759521,528.305786 484.930634,530.648743 484.561035,533.507080 
	C483.937866,538.325806 489.631927,539.889954 493.404633,540.662231 
	C503.142242,542.655640 513.066406,543.737976 523.850586,545.196289 
M506.608948,609.210571 
	C497.600372,608.445984 488.591797,607.681458 479.583221,606.916931 
	C485.638702,609.351929 491.841858,611.123535 498.163788,611.826416 
	C532.888794,615.687561 567.577393,615.387512 602.122864,609.824219 
	C612.656616,608.127808 623.094666,605.660889 632.154480,599.706055 
	C635.308105,597.633179 637.607544,594.260681 640.256531,591.523621 
	C631.343811,594.855408 623.219177,598.847168 614.631653,600.935791 
	C579.440430,609.494751 543.635376,611.297729 506.608948,609.210571 
M598.854919,541.892151 
	C598.794067,542.047302 598.700745,542.199951 598.688721,542.358765 
	C598.684143,542.419861 598.883789,542.571289 598.958252,542.552673 
	C613.252441,538.986267 626.637634,533.707947 635.836243,521.393677 
	C643.830872,510.691284 639.833008,496.949402 627.624268,492.154907 
	C621.835510,489.881561 615.957397,489.501282 610.018555,491.300507 
	C608.203735,491.850311 606.546265,492.919067 604.816711,493.750153 
	C616.224670,492.692444 623.185242,495.157074 626.996216,502.132233 
	C630.643372,508.807770 628.791809,516.843933 621.676575,524.869324 
	C620.244751,526.484314 618.791992,528.175537 617.046204,529.400024 
	C611.195984,533.503296 605.208801,537.411194 598.854919,541.892151 
M600.524048,399.504822 
	C600.524048,399.504822 600.491150,399.437561 600.524048,399.504822 
z"/>
<path fill="#FCFCFF" opacity="1.000000" stroke="none" 
	d="
M606.884277,653.024780 
	C612.760620,653.368042 618.343872,653.099548 623.610291,654.264221 
	C629.977173,655.672180 634.535400,660.396484 634.748047,666.893433 
	C635.275085,682.994324 634.921143,699.124023 634.921143,715.546021 
	C631.802124,715.546021 628.891479,715.546021 625.729065,715.546021 
	C625.168152,713.710266 624.612976,711.893433 624.390625,711.165710 
	C617.811951,713.129883 611.679138,715.988708 605.325623,716.617615 
	C595.726196,717.567749 589.053711,712.641724 587.219727,705.147705 
	C584.851501,695.470215 588.529175,686.399719 597.494751,682.715210 
	C602.897339,680.494995 609.052429,680.145813 614.823242,678.763489 
	C617.413757,678.143005 621.238159,680.274963 622.321716,676.011841 
	C623.715820,670.527344 621.499695,664.543335 616.964294,663.396606 
	C612.740845,662.328796 608.116638,662.322571 603.720459,662.617859 
	C599.817383,662.880066 595.985168,664.197754 591.610352,665.162292 
	C591.018066,662.669739 590.465027,660.342712 589.720764,657.210754 
	C595.590881,655.750183 601.020813,654.399109 606.884277,653.024780 
M601.646179,704.757507 
	C606.945923,708.497559 612.643860,708.174500 619.085571,703.990479 
	C626.020325,699.486206 621.590698,692.999207 622.836182,687.262573 
	C617.885925,687.262573 613.533630,686.702209 609.381531,687.375977 
	C599.916931,688.911926 596.939758,695.376099 601.646179,704.757507 
z"/>
<path fill="#FBFBFE" opacity="1.000000" stroke="none" 
	d="
M476.916321,685.914551 
	C485.668732,678.374939 496.364075,679.270325 506.357117,678.164185 
	C508.420990,666.530029 504.311005,661.452820 493.107025,662.124512 
	C487.681488,662.449829 482.318207,663.813965 476.217041,664.825378 
	C475.698639,662.904419 475.080994,660.615723 474.325195,657.815125 
	C485.912750,652.995789 497.382385,650.702393 509.351837,654.654968 
	C515.682678,656.745544 519.319519,661.790649 519.479248,668.222351 
	C519.866638,683.823303 519.605164,699.440369 519.605164,714.988464 
	C511.653625,717.139221 510.427246,716.593567 508.409454,709.775085 
	C506.960846,710.686523 505.710846,711.799866 504.249268,712.331665 
	C499.779053,713.958191 495.308624,716.218994 490.689178,716.655640 
	C483.264404,717.357422 476.081726,715.583374 472.773438,707.807800 
	C469.437958,699.968445 470.459656,692.499207 476.916321,685.914551 
M487.836121,706.072937 
	C489.245789,706.508789 490.629761,707.182434 492.069702,707.337830 
	C497.374390,707.910400 506.502228,703.740601 506.826019,700.314087 
	C507.237823,695.955750 506.925659,691.528992 506.925659,686.551758 
	C501.714020,686.934753 497.181671,686.765076 492.883148,687.686218 
	C483.357422,689.727722 480.789398,698.205811 487.836121,706.072937 
z"/>
<path fill="#FBFBFE" opacity="1.000000" stroke="none" 
	d="
M554.792786,402.796509 
	C549.326599,407.706421 544.070557,412.321991 538.906555,417.038330 
	C535.344604,420.291504 531.618164,423.430969 528.470642,427.059631 
	C516.997559,440.286224 515.983826,452.371552 525.120544,467.284271 
	C529.616699,474.622803 534.573303,481.679260 539.372559,488.940399 
	C538.610046,489.273987 538.236511,489.536011 538.149048,489.461670 
	C527.197693,480.150146 516.891541,470.233826 509.647400,457.626282 
	C502.563599,445.297882 503.527222,433.795654 513.748718,423.922791 
	C523.304382,414.693085 533.883484,406.526428 543.955200,397.825928 
	C547.732422,394.563049 551.521851,391.283264 555.006897,387.719055 
	C566.315430,376.153870 571.574707,362.565521 568.074585,346.122131 
	C572.848816,349.754578 575.628906,359.197083 574.545288,367.391144 
	C572.656494,381.673340 564.766418,392.615540 554.792786,402.796509 
z"/>
<path fill="#FCFCFF" opacity="1.000000" stroke="none" 
	d="
M546.226013,670.585693 
	C549.401611,681.070251 552.455383,691.172424 555.509155,701.274536 
	C555.900452,701.371521 556.291809,701.468506 556.683105,701.565430 
	C559.782227,689.204651 563.256287,676.922424 565.869507,664.459778 
	C568.234680,653.179749 567.820557,653.091309 579.519897,653.916321 
	C579.839478,653.938782 580.150635,654.082458 581.139526,654.355835 
	C579.794617,660.420593 578.882568,666.670227 576.995056,672.609924 
	C572.771606,685.899658 568.034790,699.025696 563.572754,712.240601 
	C562.636169,715.014465 560.990173,715.923706 558.020447,715.930054 
	C546.347168,715.954956 546.360352,716.064209 542.853821,704.629517 
	C538.221924,689.525085 533.562134,674.429199 528.929993,659.324768 
	C528.455688,657.778137 528.088562,656.198608 527.454651,653.820190 
	C531.555054,653.820190 535.174133,653.573364 538.724426,653.959167 
	C539.907410,654.087708 541.446228,655.640259 541.905701,656.881287 
	C543.520569,661.242188 544.736694,665.750671 546.226013,670.585693 
z"/>
<path fill="#FAFAFE" opacity="1.000000" stroke="none" 
	d="
M474.101227,590.211670 
	C499.944275,594.625793 525.601807,594.987610 551.196838,593.450195 
	C570.912598,592.265930 590.534363,589.417236 610.167786,587.057861 
	C613.384644,586.671265 616.720276,585.443909 619.497925,583.770203 
	C622.044250,582.235962 623.910706,579.573242 626.265198,577.219360 
	C628.739075,578.867432 629.353638,581.291626 626.182861,583.580627 
	C622.595947,586.169983 618.590759,588.467041 614.429016,589.924866 
	C592.683228,597.542603 569.972473,599.753540 547.171936,600.775574 
	C515.655945,602.188416 484.285034,600.302673 453.156311,595.014771 
	C450.389191,594.544739 447.587250,593.867554 445.008148,592.791260 
	C440.168884,590.771973 439.624298,587.626648 443.382751,584.070129 
	C444.809906,582.719666 446.536072,581.626648 448.262848,580.661133 
	C456.970001,575.792480 466.403961,573.299744 476.292145,572.515991 
	C478.379333,572.350647 480.516052,572.809998 482.883179,573.002014 
	C475.950317,575.219055 469.340729,577.135071 462.903656,579.517273 
	C461.084442,580.190491 459.769867,582.227234 458.223816,583.638611 
	C459.842865,584.877808 461.290802,586.575867 463.117859,587.257141 
	C466.522003,588.526550 470.146790,589.204285 474.101227,590.211670 
z"/>
<path fill="#FAFAFE" opacity="1.000000" stroke="none" 
	d="
M458.315948,724.269775 
	C454.599335,728.051025 451.229431,731.694397 447.503479,734.927490 
	C443.790161,738.149475 440.157837,738.328491 437.471802,733.386047 
	C437.008423,732.533447 436.288239,731.820374 435.481110,730.777161 
	C437.268890,729.375427 438.932312,728.100769 440.563751,726.786438 
	C445.712463,722.638000 448.074860,717.165344 448.107727,710.636902 
	C448.228455,686.660645 448.334503,662.684326 448.432373,638.708008 
	C448.460602,631.792358 448.439514,631.792542 455.487427,631.796021 
	C457.468323,631.796997 459.449219,631.796143 461.605042,631.796143 
	C461.776154,632.961121 461.992432,633.744141 461.991394,634.526855 
	C461.958740,659.172302 462.090820,683.820679 461.703979,708.460815 
	C461.622681,713.640015 459.622559,718.789124 458.315948,724.269775 
z"/>
<path fill="#FCFCFF" opacity="1.000000" stroke="none" 
	d="
M577.517700,414.435669 
	C572.236511,419.037048 566.777222,422.997406 562.338196,427.884491 
	C554.748535,436.240295 554.414917,443.324219 560.234863,452.897461 
	C562.133606,456.020660 564.255188,459.028564 566.489258,461.923767 
	C572.899109,470.230438 573.496033,478.326569 567.162415,486.643066 
	C563.536560,491.404083 558.765381,495.292816 554.509827,499.574310 
	C554.090759,499.222046 553.671692,498.869812 553.252625,498.517578 
	C553.673096,497.739105 554.065735,496.944061 554.518311,496.184784 
	C559.794861,487.332397 559.272095,481.023071 552.791077,472.815735 
	C550.218994,469.558624 547.590698,466.271179 545.560120,462.674561 
	C538.221863,449.676910 539.784729,437.418823 549.895874,426.433289 
	C559.765259,415.710358 572.580078,409.727417 585.736145,404.358398 
	C589.843323,402.682312 594.133911,401.455933 598.651611,400.701569 
	C591.700623,405.204895 584.749634,409.708221 577.517700,414.435669 
z"/>
<path fill="#F9F9FE" opacity="1.000000" stroke="none" 
	d="
M558.496338,507.886688 
	C570.961060,506.340607 582.965820,504.837097 595.258789,503.297516 
	C587.368530,510.031097 577.850952,511.436188 568.393005,512.853577 
	C541.096802,516.944336 513.676636,517.516968 486.226746,514.943665 
	C479.660950,514.328186 473.179474,512.536133 466.754028,510.910278 
	C465.283478,510.538208 463.278046,508.665985 463.208618,507.392090 
	C463.139923,506.131287 464.944244,504.235016 466.378357,503.509125 
	C479.137299,497.050812 492.568970,493.040466 508.069672,492.866241 
	C500.938507,495.264862 494.792236,497.260406 488.706268,499.425476 
	C487.006409,500.030212 485.386536,500.996246 483.902771,502.041809 
	C481.359924,503.833679 481.601929,505.855255 484.470764,506.694000 
	C488.273865,507.805939 492.266815,508.946655 496.170868,508.921783 
	C516.793945,508.790588 537.414734,508.297119 558.496338,507.886688 
z"/>
<path fill="#FBFBFE" opacity="1.000000" stroke="none" 
	d="
M526.619080,575.071777 
	C517.138733,573.007202 507.989410,571.377930 499.164124,568.686340 
	C496.373016,567.835144 494.447845,564.144653 492.126404,561.753601 
	C494.553986,559.477905 496.930267,557.143188 499.442108,554.964600 
	C500.143097,554.356689 501.244354,554.210266 502.787201,553.608093 
	C501.189056,558.510010 504.195862,559.447144 507.584900,560.055359 
	C525.620850,563.292297 543.690247,563.490173 561.652588,559.852539 
	C566.631470,558.844238 570.703491,559.587097 574.834412,562.171814 
	C577.035034,563.548767 579.510925,564.485779 582.634827,565.994263 
	C564.380432,573.996887 545.978577,576.028137 526.619080,575.071777 
z"/>
<path fill="#FBFBFE" opacity="1.000000" stroke="none" 
	d="
M523.383301,545.190186 
	C513.066406,543.737976 503.142242,542.655640 493.404633,540.662231 
	C489.631927,539.889954 483.937866,538.325806 484.561035,533.507080 
	C484.930634,530.648743 489.759521,528.305786 492.706543,525.880859 
	C493.547882,525.188538 494.820160,525.019958 495.935913,524.595581 
	C495.827209,526.723572 494.893280,529.710815 495.795593,530.446838 
	C497.830536,532.106628 500.702637,533.235413 503.358795,533.559998 
	C524.987549,536.203552 546.664062,536.034607 567.981018,531.585205 
	C575.784302,529.956543 580.904724,532.838867 587.058960,537.355347 
	C566.085754,543.773743 545.122192,545.640015 523.383301,545.190186 
z"/>
<path fill="#F9F9FE" opacity="1.000000" stroke="none" 
	d="
M507.091431,609.249084 
	C543.635376,611.297729 579.440430,609.494751 614.631653,600.935791 
	C623.219177,598.847168 631.343811,594.855408 640.256531,591.523621 
	C637.607544,594.260681 635.308105,597.633179 632.154480,599.706055 
	C623.094666,605.660889 612.656616,608.127808 602.122864,609.824219 
	C567.577393,615.387512 532.888794,615.687561 498.163788,611.826416 
	C491.841858,611.123535 485.638702,609.351929 479.583221,606.916931 
	C488.591797,607.681458 497.600372,608.445984 507.091431,609.249084 
z"/>
<path fill="#F9F9FE" opacity="1.000000" stroke="none" 
	d="
M599.064514,541.643005 
	C605.208801,537.411194 611.195984,533.503296 617.046204,529.400024 
	C618.791992,528.175537 620.244751,526.484314 621.676575,524.869324 
	C628.791809,516.843933 630.643372,508.807770 626.996216,502.132233 
	C623.185242,495.157074 616.224670,492.692444 604.816711,493.750153 
	C606.546265,492.919067 608.203735,491.850311 610.018555,491.300507 
	C615.957397,489.501282 621.835510,489.881561 627.624268,492.154907 
	C639.833008,496.949402 643.830872,510.691284 635.836243,521.393677 
	C626.637634,533.707947 613.252441,538.986267 598.958252,542.552673 
	C598.883789,542.571289 598.684143,542.419861 598.688721,542.358765 
	C598.700745,542.199951 598.794067,542.047302 599.064514,541.643005 
z"/>
<path fill="#FCFCFF" opacity="1.000000" stroke="none" 
	d="
M600.507568,399.471191 
	C600.491150,399.437561 600.524048,399.504822 600.507568,399.471191 
z"/>
<path fill="#7171EC" opacity="1.000000" stroke="none" 
	d="
M601.404541,704.460693 
	C596.939758,695.376099 599.916931,688.911926 609.381531,687.375977 
	C613.533630,686.702209 617.885925,687.262573 622.836182,687.262573 
	C621.590698,692.999207 626.020325,699.486206 619.085571,703.990479 
	C612.643860,708.174500 606.945923,708.497559 601.404541,704.460693 
z"/>
<path fill="#6D6DEB" opacity="1.000000" stroke="none" 
	d="
M487.487732,705.857666 
	C480.789398,698.205811 483.357422,689.727722 492.883148,687.686218 
	C497.181671,686.765076 501.714020,686.934753 506.925659,686.551758 
	C506.925659,691.528992 507.237823,695.955750 506.826019,700.314087 
	C506.502228,703.740601 497.374390,707.910400 492.069702,707.337830 
	C490.629761,707.182434 489.245789,706.508789 487.487732,705.857666 
z"/>
</svg>