<svg version="1.1" id="Layer_1" xmlns="http://www.w3.org/2000/svg" xmlns:xlink="http://www.w3.org/1999/xlink" x="0px" y="0px"
	 width="100%" viewBox="0 0 1080 1080" enable-background="new 0 0 1080 1080" xml:space="preserve">
<path fill="#6D6DEB" opacity="1.000000" stroke="none" 
	d="
M497.000000,1081.000000 
	C331.352386,1081.000000 166.204788,1081.000000 1.028589,1081.000000 
	C1.028589,721.060608 1.028589,361.121216 1.028589,1.090902 
	C360.897858,1.090902 720.795715,1.090902 1080.846802,1.090902 
	C1080.846802,360.999939 1080.846802,720.999939 1080.846802,1081.000000 
	C886.454102,1081.000000 691.977051,1081.000000 497.000000,1081.000000 
M725.655640,370.208557 
	C726.850159,355.832367 728.044678,341.456177 729.292847,326.434326 
	C603.420166,326.434326 478.367645,326.434326 352.789307,326.434326 
	C352.996368,330.659882 353.084351,334.784698 353.417786,338.889526 
	C355.912598,369.603577 358.467377,400.312683 360.980927,431.025238 
	C363.480835,461.571411 365.947357,492.120392 368.441803,522.666992 
	C371.288879,557.531250 374.145874,592.394653 377.007477,627.257690 
	C379.201263,653.985046 381.477509,680.706116 383.526306,707.444580 
	C383.791199,710.902039 385.168060,712.178284 388.342102,713.061279 
	C431.311249,725.014343 474.477264,736.344177 517.071838,749.518494 
	C534.616943,754.945129 550.382507,754.722046 567.769287,749.232178 
	C608.702881,736.307373 650.141479,724.977722 691.419800,713.156738 
	C694.830688,712.179932 696.291809,710.785645 696.420715,707.157532 
	C696.633240,701.174438 697.446899,695.214050 697.962830,689.240234 
	C701.101685,652.897278 704.211121,616.551819 707.363037,580.210022 
	C710.543701,543.536804 713.772766,506.867889 716.961182,470.195374 
	C719.832275,437.172913 722.677063,404.148132 725.655640,370.208557 
z"/>
<path fill="#FEFEFF" opacity="1.000000" stroke="none" 
	d="
M725.594543,370.666473 
	C722.677063,404.148132 719.832275,437.172913 716.961182,470.195374 
	C713.772766,506.867889 710.543701,543.536804 707.363037,580.210022 
	C704.211121,616.551819 701.101685,652.897278 697.962830,689.240234 
	C697.446899,695.214050 696.633240,701.174438 696.420715,707.157532 
	C696.291809,710.785645 694.830688,712.179932 691.419800,713.156738 
	C650.141479,724.977722 608.702881,736.307373 567.769287,749.232178 
	C550.382507,754.722046 534.616943,754.945129 517.071838,749.518494 
	C474.477264,736.344177 431.311249,725.014343 388.342102,713.061279 
	C385.168060,712.178284 383.791199,710.902039 383.526306,707.444580 
	C381.477509,680.706116 379.201263,653.985046 377.007477,627.257690 
	C374.145874,592.394653 371.288879,557.531250 368.441803,522.666992 
	C365.947357,492.120392 363.480835,461.571411 360.980927,431.025238 
	C358.467377,400.312683 355.912598,369.603577 353.417786,338.889526 
	C353.084351,334.784698 352.996368,330.659882 352.789307,326.434326 
	C478.367645,326.434326 603.420166,326.434326 729.292847,326.434326 
	C728.044678,341.456177 726.850159,355.832367 725.594543,370.666473 
M661.003906,542.777893 
	C661.507935,537.061096 662.011963,531.344238 662.584473,524.850281 
	C641.199951,524.850281 620.671753,524.850281 600.191650,524.850281 
	C600.191650,499.687744 600.191650,475.245789 600.191650,450.166962 
	C602.250061,450.166962 604.030457,450.167053 605.810791,450.166992 
	C623.141113,450.166473 640.471436,450.146942 657.801636,450.185242 
	C660.475220,450.191162 662.583252,450.124847 663.113464,446.576691 
	C665.171570,432.806122 667.486877,419.073975 669.743530,405.098175 
	C631.962891,405.098175 594.531311,405.098175 556.775269,405.098175 
	C556.775269,462.081451 556.775269,518.799561 556.775269,576.233765 
	C579.953247,572.864319 602.683777,569.559998 626.439270,566.106628 
	C625.939697,572.945740 625.371948,579.331299 625.027344,585.728882 
	C624.348450,598.333435 623.645447,610.940308 623.277832,623.555725 
	C623.168701,627.298767 621.952209,628.985474 618.324158,630.185791 
	C599.051086,636.562195 579.913086,643.346558 560.652283,649.761292 
	C557.366943,650.855469 556.239624,652.386841 556.343079,655.786255 
	C556.576111,663.444458 556.414978,671.114624 556.414612,678.779968 
	C556.414368,685.062622 556.414612,691.345276 556.414612,698.104919 
	C558.385681,697.807617 559.663391,697.697815 560.901489,697.414734 
	C568.787598,695.611877 576.667725,693.782471 584.544678,691.939880 
	C606.712036,686.754456 628.861267,681.489685 651.060791,676.445862 
	C654.123901,675.749939 655.097961,674.498474 655.116028,671.459167 
	C655.147522,666.165710 655.704590,660.877747 655.925781,655.582642 
	C656.646362,638.335510 657.300476,621.085632 658.009888,603.838013 
	C658.316650,596.378418 658.672241,588.920593 659.047729,581.464050 
	C659.681213,568.885681 660.348145,556.309082 661.003906,542.777893 
M489.613403,404.830902 
	C488.165253,404.942963 486.717102,405.055023 484.592743,405.219391 
	C484.592743,484.168182 484.592743,562.830139 484.592743,641.974609 
	C475.513977,640.257812 467.240662,638.420166 458.875793,637.220154 
	C454.287598,636.561890 452.361755,635.126160 452.664307,630.055603 
	C453.175537,621.489014 452.804626,612.869751 452.804626,604.030212 
	C439.890228,601.995667 427.646667,600.066833 415.245270,598.113098 
	C415.044098,599.281860 414.838409,599.921631 414.837646,600.561646 
	C414.811890,622.387268 414.892303,644.213684 414.708862,666.037842 
	C414.679138,669.578369 416.696198,670.071228 419.171112,670.715332 
	C453.148163,679.557251 487.120819,688.416138 521.099365,697.252319 
	C522.449951,697.603577 523.848816,697.769165 525.385132,698.050537 
	C525.385132,600.049561 525.385132,502.670380 525.385132,404.830048 
	C513.539917,404.830048 502.067444,404.830048 489.613403,404.830902 
z"/>
<path fill="#6D6DEB" opacity="1.000000" stroke="none" 
	d="
M661.002441,543.254761 
	C660.348145,556.309082 659.681213,568.885681 659.047729,581.464050 
	C658.672241,588.920593 658.316650,596.378418 658.009888,603.838013 
	C657.300476,621.085632 656.646362,638.335510 655.925781,655.582642 
	C655.704590,660.877747 655.147522,666.165710 655.116028,671.459167 
	C655.097961,674.498474 654.123901,675.749939 651.060791,676.445862 
	C628.861267,681.489685 606.712036,686.754456 584.544678,691.939880 
	C576.667725,693.782471 568.787598,695.611877 560.901489,697.414734 
	C559.663391,697.697815 558.385681,697.807617 556.414612,698.104919 
	C556.414612,691.345276 556.414368,685.062622 556.414612,678.779968 
	C556.414978,671.114624 556.576111,663.444458 556.343079,655.786255 
	C556.239624,652.386841 557.366943,650.855469 560.652283,649.761292 
	C579.913086,643.346558 599.051086,636.562195 618.324158,630.185791 
	C621.952209,628.985474 623.168701,627.298767 623.277832,623.555725 
	C623.645447,610.940308 624.348450,598.333435 625.027344,585.728882 
	C625.371948,579.331299 625.939697,572.945740 626.439270,566.106628 
	C602.683777,569.559998 579.953247,572.864319 556.775269,576.233765 
	C556.775269,518.799561 556.775269,462.081451 556.775269,405.098175 
	C594.531311,405.098175 631.962891,405.098175 669.743530,405.098175 
	C667.486877,419.073975 665.171570,432.806122 663.113464,446.576691 
	C662.583252,450.124847 660.475220,450.191162 657.801636,450.185242 
	C640.471436,450.146942 623.141113,450.166473 605.810791,450.166992 
	C604.030457,450.167053 602.250061,450.166962 600.191650,450.166962 
	C600.191650,475.245789 600.191650,499.687744 600.191650,524.850281 
	C620.671753,524.850281 641.199951,524.850281 662.584473,524.850281 
	C662.011963,531.344238 661.507935,537.061096 661.002441,543.254761 
z"/>
<path fill="#6E6EEB" opacity="1.000000" stroke="none" 
	d="
M490.104187,404.830475 
	C502.067444,404.830048 513.539917,404.830048 525.385132,404.830048 
	C525.385132,502.670380 525.385132,600.049561 525.385132,698.050537 
	C523.848816,697.769165 522.449951,697.603577 521.099365,697.252319 
	C487.120819,688.416138 453.148163,679.557251 419.171112,670.715332 
	C416.696198,670.071228 414.679138,669.578369 414.708862,666.037842 
	C414.892303,644.213684 414.811890,622.387268 414.837646,600.561646 
	C414.838409,599.921631 415.044098,599.281860 415.245270,598.113098 
	C427.646667,600.066833 439.890228,601.995667 452.804626,604.030212 
	C452.804626,612.869751 453.175537,621.489014 452.664307,630.055603 
	C452.361755,635.126160 454.287598,636.561890 458.875793,637.220154 
	C467.240662,638.420166 475.513977,640.257812 484.592743,641.974609 
	C484.592743,562.830139 484.592743,484.168182 484.592743,405.219391 
	C486.717102,405.055023 488.165253,404.942963 490.104187,404.830475 
z"/>
</svg>