<svg version="1.1" id="Layer_1" xmlns="http://www.w3.org/2000/svg" xmlns:xlink="http://www.w3.org/1999/xlink" x="0px" y="0px"
	 width="100%" viewBox="0 0 1080 1080" enable-background="new 0 0 1080 1080" xml:space="preserve">
<path fill="#6D6DEB" opacity="1.000000" stroke="none" 
	d="
M583.000000,1081.000000 
	C388.689026,1081.000000 194.878067,1081.000000 1.033551,1081.000000 
	C1.033551,721.063904 1.033551,361.127808 1.033551,1.095864 
	C360.894501,1.095864 720.789062,1.095864 1080.841797,1.095864 
	C1080.841797,360.999939 1080.841797,720.999939 1080.841797,1081.000000 
	C915.127380,1081.000000 749.313660,1081.000000 583.000000,1081.000000 
M657.101746,533.172180 
	C657.101746,533.172180 657.288147,533.169434 657.288147,533.169434 
	C657.288147,533.169434 656.820190,533.095947 656.730957,532.600403 
	C656.485779,532.374329 656.240662,532.148254 655.757263,531.490417 
	C655.493347,531.288940 655.207520,531.125732 654.147583,530.954956 
	C644.991028,517.137268 635.634644,503.432312 630.186646,487.206116 
	C621.562866,494.119659 621.979736,503.907410 620.107605,514.277161 
	C617.905151,511.941681 615.972534,510.729553 615.306030,509.022888 
	C613.564453,504.563751 611.814819,499.975403 611.086914,495.280640 
	C609.637634,485.933502 610.580017,476.702881 614.225830,467.828949 
	C615.627319,464.417664 616.303162,461.227844 613.864258,457.499603 
	C610.095764,451.738983 606.409668,445.687225 604.124817,439.249268 
	C600.747131,429.732422 596.996582,420.632477 590.303284,412.923401 
	C588.794189,411.185303 587.427124,409.160919 586.619568,407.031311 
	C586.033325,405.485382 585.767395,402.824921 586.640564,401.968597 
	C587.746826,400.883728 590.490356,400.323212 591.937988,400.934143 
	C597.568420,403.310181 602.931824,406.310059 608.463867,408.931763 
	C611.065125,410.164551 613.754333,411.324829 616.524719,412.064484 
	C622.735474,413.722687 629.545471,414.024017 635.186035,416.775146 
	C658.036255,427.920258 674.463501,445.448822 684.544861,468.913879 
	C688.879028,479.001923 693.693542,488.882935 698.241760,498.879883 
	C700.670837,504.218994 704.476929,507.702850 710.364990,508.987579 
	C722.143982,511.557617 731.031738,519.429260 740.661194,525.911133 
	C741.249634,526.307312 741.543213,527.141479 742.218933,528.130310 
	C736.351501,528.826294 730.895996,529.098999 725.623901,530.228271 
	C722.017151,531.000854 718.666199,532.967163 715.200928,534.399841 
	C717.499023,538.125122 718.957886,543.045959 722.249207,545.356506 
	C733.109924,552.981079 744.633179,559.662048 756.644775,567.169373 
	C755.782898,565.522888 755.529663,564.442139 754.851990,563.836548 
	C747.698730,557.444458 740.505249,551.096558 733.260803,544.807922 
	C730.687134,542.573792 727.944336,540.534485 725.278748,538.406189 
	C725.560242,537.958069 725.841675,537.509949 726.123169,537.061890 
	C734.413025,535.327881 742.702820,533.593933 751.932800,531.663330 
	C740.620178,517.720459 727.326050,508.974274 712.374512,502.301544 
	C709.613220,501.069275 706.814392,498.518097 705.433411,495.850616 
	C700.693481,486.694672 696.160645,477.383942 692.307861,467.826263 
	C684.397827,448.203796 671.274719,432.877686 654.580566,420.350494 
	C643.792419,412.255188 632.417053,405.576660 618.226562,405.670715 
	C616.335571,405.683228 614.255066,404.236053 612.567505,403.035828 
	C605.964600,398.339661 599.033447,394.374603 590.737061,394.041351 
	C583.036804,393.732056 578.216797,400.175903 580.822754,407.426056 
	C582.033691,410.795135 584.107727,413.965668 586.286438,416.851837 
	C590.715149,422.718750 594.409668,428.768768 596.976624,435.825104 
	C600.065247,444.315826 604.811157,452.195496 608.631836,460.435974 
	C609.291748,461.859222 609.196045,463.797821 608.978027,465.435608 
	C607.776978,474.457703 605.565430,483.442078 605.375000,492.474701 
	C605.183960,501.533966 607.772339,510.473450 614.687561,517.024658 
	C616.633057,518.867798 620.630249,520.102783 623.056519,519.410156 
	C625.168945,518.807190 626.890991,515.283569 627.878967,512.703369 
	C629.013245,509.740814 629.149475,506.396118 629.914124,502.130402 
	C631.214478,504.105347 632.008667,504.964478 632.412109,505.979034 
	C635.733398,514.331177 641.958618,520.313416 648.609863,525.941101 
	C650.666382,527.681091 652.862915,529.255676 655.227112,531.363220 
	C655.511902,531.519531 655.796692,531.675842 656.198792,532.330872 
	C656.436340,532.557129 656.673828,532.783386 657.101746,533.172180 
M393.056793,626.749634 
	C397.427765,613.173157 401.798767,599.596619 406.169739,586.020142 
	C406.823914,586.103210 407.478088,586.186279 408.132294,586.269348 
	C409.645386,611.397827 411.158508,636.526306 412.692902,662.008362 
	C415.480042,662.008362 418.122986,662.008362 420.765930,662.008362 
	C423.350708,662.008362 425.935486,662.008362 429.659576,662.008362 
	C427.016541,628.208679 424.442780,595.294800 421.850983,562.150391 
	C415.787720,562.150391 411.121002,562.396484 406.494019,562.073547 
	C402.705200,561.809143 400.985321,563.075439 399.808014,566.804443 
	C394.350006,584.092590 388.551941,601.273438 382.854950,618.485840 
	C381.165131,623.591309 379.407715,628.674438 377.220673,635.126648 
	C376.115601,632.101074 375.464783,630.460754 374.913269,628.787720 
	C368.039154,607.934631 361.108398,587.099548 354.393799,566.195129 
	C353.404266,563.114319 352.043640,561.884888 348.803406,562.088013 
	C344.655334,562.347961 340.473938,562.272278 336.315948,562.109924 
	C333.504913,562.000061 332.123444,562.722168 331.896118,565.882141 
	C329.698425,596.431396 327.354218,626.970032 325.089996,657.514587 
	C324.985565,658.923340 325.243225,660.358887 325.332977,661.794434 
	C330.458832,661.794434 335.089142,661.794434 339.768555,661.794434 
	C340.919250,636.326416 342.060638,611.065063 343.201996,585.803650 
	C343.701782,585.785156 344.201569,585.766602 344.701355,585.748108 
	C345.242065,587.283386 345.823151,588.805847 346.317261,590.355957 
	C352.834503,610.800537 359.348175,631.246277 365.843872,651.697693 
	C369.211517,662.300476 369.194763,662.309021 380.182556,661.960205 
	C380.666412,661.944824 381.145386,661.774414 381.893707,661.621704 
	C385.532410,650.316406 389.199585,638.922668 393.056793,626.749634 
M591.296997,652.199280 
	C594.264221,654.575623 596.949463,657.488464 600.252869,659.225342 
	C609.298218,663.981079 619.059998,664.042297 628.997620,662.841919 
	C631.538086,662.535034 634.561646,663.040649 636.823303,664.213745 
	C643.438049,667.644592 649.780334,671.600647 656.736206,675.645691 
	C658.973633,671.776001 661.007019,668.259094 663.177856,664.504517 
	C657.103271,661.410583 651.428406,658.520203 646.554077,656.037598 
	C650.263489,649.477966 654.599487,643.799927 656.880188,637.390503 
	C662.846313,620.623657 662.776917,603.382324 658.013916,586.293274 
	C654.197205,572.599426 645.437500,563.571838 631.062927,561.441101 
	C616.004211,559.208984 602.015076,561.394653 591.911011,574.421570 
	C582.714783,586.278015 581.019958,600.317383 581.111084,614.637878 
	C581.194336,627.724915 582.553833,640.636902 591.296997,652.199280 
M522.124084,567.587646 
	C507.578247,581.393860 509.902710,600.918701 527.292603,610.967102 
	C529.743469,612.383362 532.226807,613.743958 534.666077,615.179688 
	C539.683105,618.132629 544.903442,620.806152 549.626831,624.174255 
	C554.963318,627.979675 558.140198,633.135437 556.116577,640.118774 
	C554.138916,646.943726 548.889404,650.321655 542.426270,650.726624 
	C536.739197,651.083008 530.902283,650.006226 525.216797,649.053589 
	C522.051514,648.523254 519.060364,646.953674 515.786621,645.779297 
	C514.347290,648.627991 513.096436,651.103699 511.730988,653.806213 
	C522.772644,661.929016 534.808960,664.617676 547.825500,662.744873 
	C561.667542,660.753357 571.445007,651.867126 573.712952,639.827576 
	C576.131531,626.988281 571.321838,618.279297 557.533325,610.365417 
	C550.464539,606.308411 543.221985,602.495972 536.474548,597.954041 
	C530.012878,593.604553 528.031677,587.861755 529.860107,582.135498 
	C531.731079,576.275940 537.132935,572.554626 544.842346,572.972290 
	C551.400513,573.327576 557.902710,574.716797 565.014954,575.732117 
	C565.912292,573.673218 567.064697,571.029053 568.165100,568.504150 
	C554.739624,558.779541 535.718018,558.344727 522.124084,567.587646 
M479.715668,659.259094 
	C490.839142,637.019775 496.333862,613.111206 501.171326,588.150879 
	C497.020905,588.150879 493.401611,588.314575 489.804565,588.101929 
	C486.599487,587.912537 485.424103,588.857544 484.695435,592.312866 
	C481.166382,609.048096 477.163757,625.683899 473.267822,642.340637 
	C472.883362,643.984314 472.083405,645.530884 471.354645,647.441406 
	C470.644501,646.665405 470.334106,646.478943 470.260681,646.224182 
	C465.014832,628.023132 459.825409,609.805603 454.480865,591.633606 
	C454.093872,590.317749 452.662018,588.432556 451.592133,588.346191 
	C447.043549,587.979004 442.448273,588.190247 437.123077,588.190247 
	C440.775726,599.616394 444.204559,610.177185 447.524689,620.771973 
	C451.303009,632.828674 455.363220,644.815491 458.597046,657.019165 
	C461.591888,668.321045 454.541107,676.919006 442.962738,677.096497 
	C440.692352,677.131287 438.420990,677.101440 436.204895,677.101440 
	C435.151337,686.298584 434.222046,686.578613 444.468262,687.928833 
	C452.178375,688.944824 459.211212,685.825073 464.238098,680.187500 
	C469.826904,673.919678 474.351532,666.702942 479.715668,659.259094 
M713.416138,649.808350 
	C706.450439,649.808350 699.484680,649.808350 691.845947,649.808350 
	C691.845947,620.448730 691.845947,591.591492 691.845947,562.449951 
	C686.245300,562.449951 681.322266,562.449951 676.121826,562.449951 
	C676.121826,595.614014 676.121826,628.635132 676.121826,661.665283 
	C691.836182,661.665283 707.227661,661.665283 722.668945,661.665283 
	C722.668945,657.600708 722.668945,653.884338 722.668945,649.808777 
	C719.682495,649.808777 717.033386,649.808777 713.416138,649.808350 
M754.897034,649.849060 
	C753.283081,651.863647 751.669128,653.878235 749.799683,656.211731 
	C749.087036,654.703064 748.670593,652.771667 747.485535,651.658997 
	C746.605225,650.832336 744.727722,651.067627 743.294373,650.829956 
	C743.294373,654.516235 743.294373,658.202454 743.294373,661.888733 
	C743.941284,661.901123 744.588196,661.913513 745.235107,661.925964 
	C745.587463,660.164917 745.939758,658.403809 746.433228,655.937195 
	C747.740967,658.360840 748.754944,660.239990 750.080811,662.697205 
	C751.478271,660.402222 752.451477,658.804016 753.537720,657.020142 
	C754.319458,658.926575 754.959167,660.486633 755.598877,662.046692 
	C756.232727,661.889221 756.866577,661.731689 757.500488,661.574219 
	C756.877808,657.679077 756.255188,653.783997 754.897034,649.849060 
M619.936646,430.709747 
	C620.702576,432.105438 621.468506,433.501129 622.323486,435.059052 
	C625.219360,432.391937 625.734558,429.758820 623.683838,426.868042 
	C621.792053,424.201233 619.416626,422.896973 615.832031,424.786835 
	C617.161926,426.647644 618.384094,428.357666 619.936646,430.709747 
M736.308594,649.790039 
	C734.588257,649.790039 732.867920,649.790039 732.273254,649.790039 
	C733.506104,654.282776 734.566956,658.148682 735.788818,662.601624 
	C738.644836,658.412842 734.228577,652.888245 741.047424,650.575439 
	C739.106628,650.196655 738.068481,649.994019 736.308594,649.790039 
z"/>
<path fill="#FCFCFF" opacity="1.000000" stroke="none" 
	d="
M392.961792,627.139282 
	C389.199585,638.922668 385.532410,650.316406 381.893707,661.621704 
	C381.145386,661.774414 380.666412,661.944824 380.182556,661.960205 
	C369.194763,662.309021 369.211517,662.300476 365.843872,651.697693 
	C359.348175,631.246277 352.834503,610.800537 346.317261,590.355957 
	C345.823151,588.805847 345.242065,587.283386 344.701355,585.748108 
	C344.201569,585.766602 343.701782,585.785156 343.201996,585.803650 
	C342.060638,611.065063 340.919250,636.326416 339.768555,661.794434 
	C335.089142,661.794434 330.458832,661.794434 325.332977,661.794434 
	C325.243225,660.358887 324.985565,658.923340 325.089996,657.514587 
	C327.354218,626.970032 329.698425,596.431396 331.896118,565.882141 
	C332.123444,562.722168 333.504913,562.000061 336.315948,562.109924 
	C340.473938,562.272278 344.655334,562.347961 348.803406,562.088013 
	C352.043640,561.884888 353.404266,563.114319 354.393799,566.195129 
	C361.108398,587.099548 368.039154,607.934631 374.913269,628.787720 
	C375.464783,630.460754 376.115601,632.101074 377.220673,635.126648 
	C379.407715,628.674438 381.165131,623.591309 382.854950,618.485840 
	C388.551941,601.273438 394.350006,584.092590 399.808014,566.804443 
	C400.985321,563.075439 402.705200,561.809143 406.494019,562.073547 
	C411.121002,562.396484 415.787720,562.150391 421.850983,562.150391 
	C424.442780,595.294800 427.016541,628.208679 429.659576,662.008362 
	C425.935486,662.008362 423.350708,662.008362 420.765930,662.008362 
	C418.122986,662.008362 415.480042,662.008362 412.692902,662.008362 
	C411.158508,636.526306 409.645386,611.397827 408.132294,586.269348 
	C407.478088,586.186279 406.823914,586.103210 406.169739,586.020142 
	C401.798767,599.596619 397.427765,613.173157 392.961792,627.139282 
z"/>
<path fill="#FCFCFF" opacity="1.000000" stroke="none" 
	d="
M591.080688,651.914551 
	C582.553833,640.636902 581.194336,627.724915 581.111084,614.637878 
	C581.019958,600.317383 582.714783,586.278015 591.911011,574.421570 
	C602.015076,561.394653 616.004211,559.208984 631.062927,561.441101 
	C645.437500,563.571838 654.197205,572.599426 658.013916,586.293274 
	C662.776917,603.382324 662.846313,620.623657 656.880188,637.390503 
	C654.599487,643.799927 650.263489,649.477966 646.554077,656.037598 
	C651.428406,658.520203 657.103271,661.410583 663.177856,664.504517 
	C661.007019,668.259094 658.973633,671.776001 656.736206,675.645691 
	C649.780334,671.600647 643.438049,667.644592 636.823303,664.213745 
	C634.561646,663.040649 631.538086,662.535034 628.997620,662.841919 
	C619.059998,664.042297 609.298218,663.981079 600.252869,659.225342 
	C596.949463,657.488464 594.264221,654.575623 591.080688,651.914551 
M605.859558,579.394043 
	C604.160217,582.602234 601.832642,585.633179 600.869019,589.048950 
	C596.427795,604.791992 596.697693,620.662537 601.395447,636.275940 
	C604.376343,646.183105 611.224426,650.898315 620.969421,650.992371 
	C630.749756,651.086731 637.675720,646.569702 640.831787,636.705627 
	C646.094543,620.257629 645.994263,603.459290 640.650452,587.148621 
	C635.645203,571.871277 618.359131,568.055237 605.859558,579.394043 
z"/>
<path fill="#F9F9FE" opacity="1.000000" stroke="none" 
	d="
M654.995300,530.906006 
	C652.862915,529.255676 650.666382,527.681091 648.609863,525.941101 
	C641.958618,520.313416 635.733398,514.331177 632.412109,505.979034 
	C632.008667,504.964478 631.214478,504.105347 629.914124,502.130402 
	C629.149475,506.396118 629.013245,509.740814 627.878967,512.703369 
	C626.890991,515.283569 625.168945,518.807190 623.056519,519.410156 
	C620.630249,520.102783 616.633057,518.867798 614.687561,517.024658 
	C607.772339,510.473450 605.183960,501.533966 605.375000,492.474701 
	C605.565430,483.442078 607.776978,474.457703 608.978027,465.435608 
	C609.196045,463.797821 609.291748,461.859222 608.631836,460.435974 
	C604.811157,452.195496 600.065247,444.315826 596.976624,435.825104 
	C594.409668,428.768768 590.715149,422.718750 586.286438,416.851837 
	C584.107727,413.965668 582.033691,410.795135 580.822754,407.426056 
	C578.216797,400.175903 583.036804,393.732056 590.737061,394.041351 
	C599.033447,394.374603 605.964600,398.339661 612.567505,403.035828 
	C614.255066,404.236053 616.335571,405.683228 618.226562,405.670715 
	C632.417053,405.576660 643.792419,412.255188 654.580566,420.350494 
	C671.274719,432.877686 684.397827,448.203796 692.307861,467.826263 
	C696.160645,477.383942 700.693481,486.694672 705.433411,495.850616 
	C706.814392,498.518097 709.613220,501.069275 712.374512,502.301544 
	C727.326050,508.974274 740.620178,517.720459 751.932800,531.663330 
	C742.702820,533.593933 734.413025,535.327881 726.123169,537.061890 
	C725.841675,537.509949 725.560242,537.958069 725.278748,538.406189 
	C727.944336,540.534485 730.687134,542.573792 733.260803,544.807922 
	C740.505249,551.096558 747.698730,557.444458 754.851990,563.836548 
	C755.529663,564.442139 755.782898,565.522888 756.644775,567.169373 
	C744.633179,559.662048 733.109924,552.981079 722.249207,545.356506 
	C718.957886,543.045959 717.499023,538.125122 715.200928,534.399841 
	C718.666199,532.967163 722.017151,531.000854 725.623901,530.228271 
	C730.895996,529.098999 736.351501,528.826294 742.218933,528.130310 
	C741.543213,527.141479 741.249634,526.307312 740.661194,525.911133 
	C731.031738,519.429260 722.143982,511.557617 710.364990,508.987579 
	C704.476929,507.702850 700.670837,504.218994 698.241760,498.879883 
	C693.693542,488.882935 688.879028,479.001923 684.544861,468.913879 
	C674.463501,445.448822 658.036255,427.920258 635.186035,416.775146 
	C629.545471,414.024017 622.735474,413.722687 616.524719,412.064484 
	C613.754333,411.324829 611.065125,410.164551 608.463867,408.931763 
	C602.931824,406.310059 597.568420,403.310181 591.937988,400.934143 
	C590.490356,400.323212 587.746826,400.883728 586.640564,401.968597 
	C585.767395,402.824921 586.033325,405.485382 586.619568,407.031311 
	C587.427124,409.160919 588.794189,411.185303 590.303284,412.923401 
	C596.996582,420.632477 600.747131,429.732422 604.124817,439.249268 
	C606.409668,445.687225 610.095764,451.738983 613.864258,457.499603 
	C616.303162,461.227844 615.627319,464.417664 614.225830,467.828949 
	C610.580017,476.702881 609.637634,485.933502 611.086914,495.280640 
	C611.814819,499.975403 613.564453,504.563751 615.306030,509.022888 
	C615.972534,510.729553 617.905151,511.941681 620.107605,514.277161 
	C621.979736,503.907410 621.562866,494.119659 630.186646,487.206116 
	C635.634644,503.432312 644.991028,517.137268 654.553467,530.960083 
	C654.959412,530.965271 654.995300,530.906006 654.995300,530.906006 
z"/>
<path fill="#FCFCFF" opacity="1.000000" stroke="none" 
	d="
M522.400269,567.360046 
	C535.718018,558.344727 554.739624,558.779541 568.165100,568.504150 
	C567.064697,571.029053 565.912292,573.673218 565.014954,575.732117 
	C557.902710,574.716797 551.400513,573.327576 544.842346,572.972290 
	C537.132935,572.554626 531.731079,576.275940 529.860107,582.135498 
	C528.031677,587.861755 530.012878,593.604553 536.474548,597.954041 
	C543.221985,602.495972 550.464539,606.308411 557.533325,610.365417 
	C571.321838,618.279297 576.131531,626.988281 573.712952,639.827576 
	C571.445007,651.867126 561.667542,660.753357 547.825500,662.744873 
	C534.808960,664.617676 522.772644,661.929016 511.730988,653.806213 
	C513.096436,651.103699 514.347290,648.627991 515.786621,645.779297 
	C519.060364,646.953674 522.051514,648.523254 525.216797,649.053589 
	C530.902283,650.006226 536.739197,651.083008 542.426270,650.726624 
	C548.889404,650.321655 554.138916,646.943726 556.116577,640.118774 
	C558.140198,633.135437 554.963318,627.979675 549.626831,624.174255 
	C544.903442,620.806152 539.683105,618.132629 534.666077,615.179688 
	C532.226807,613.743958 529.743469,612.383362 527.292603,610.967102 
	C509.902710,600.918701 507.578247,581.393860 522.400269,567.360046 
z"/>
<path fill="#FCFCFF" opacity="1.000000" stroke="none" 
	d="
M479.527557,659.579224 
	C474.351532,666.702942 469.826904,673.919678 464.238098,680.187500 
	C459.211212,685.825073 452.178375,688.944824 444.468262,687.928833 
	C434.222046,686.578613 435.151337,686.298584 436.204895,677.101440 
	C438.420990,677.101440 440.692352,677.131287 442.962738,677.096497 
	C454.541107,676.919006 461.591888,668.321045 458.597046,657.019165 
	C455.363220,644.815491 451.303009,632.828674 447.524689,620.771973 
	C444.204559,610.177185 440.775726,599.616394 437.123077,588.190247 
	C442.448273,588.190247 447.043549,587.979004 451.592133,588.346191 
	C452.662018,588.432556 454.093872,590.317749 454.480865,591.633606 
	C459.825409,609.805603 465.014832,628.023132 470.260681,646.224182 
	C470.334106,646.478943 470.644501,646.665405 471.354645,647.441406 
	C472.083405,645.530884 472.883362,643.984314 473.267822,642.340637 
	C477.163757,625.683899 481.166382,609.048096 484.695435,592.312866 
	C485.424103,588.857544 486.599487,587.912537 489.804565,588.101929 
	C493.401611,588.314575 497.020905,588.150879 501.171326,588.150879 
	C496.333862,613.111206 490.839142,637.019775 479.527557,659.579224 
z"/>
<path fill="#FCFCFF" opacity="1.000000" stroke="none" 
	d="
M713.900208,649.808594 
	C717.033386,649.808777 719.682495,649.808777 722.668945,649.808777 
	C722.668945,653.884338 722.668945,657.600708 722.668945,661.665283 
	C707.227661,661.665283 691.836182,661.665283 676.121826,661.665283 
	C676.121826,628.635132 676.121826,595.614014 676.121826,562.449951 
	C681.322266,562.449951 686.245300,562.449951 691.845947,562.449951 
	C691.845947,591.591492 691.845947,620.448730 691.845947,649.808350 
	C699.484680,649.808350 706.450439,649.808350 713.900208,649.808594 
z"/>
<path fill="#F9F9FE" opacity="1.000000" stroke="none" 
	d="
M755.264771,649.868958 
	C756.255188,653.783997 756.877808,657.679077 757.500488,661.574219 
	C756.866577,661.731689 756.232727,661.889221 755.598877,662.046692 
	C754.959167,660.486633 754.319458,658.926575 753.537720,657.020142 
	C752.451477,658.804016 751.478271,660.402222 750.080811,662.697205 
	C748.754944,660.239990 747.740967,658.360840 746.433228,655.937195 
	C745.939758,658.403809 745.587463,660.164917 745.235107,661.925964 
	C744.588196,661.913513 743.941284,661.901123 743.294373,661.888733 
	C743.294373,658.202454 743.294373,654.516235 743.294373,650.829956 
	C744.727722,651.067627 746.605225,650.832336 747.485535,651.658997 
	C748.670593,652.771667 749.087036,654.703064 749.799683,656.211731 
	C751.669128,653.878235 753.283081,651.863647 755.264771,649.868958 
z"/>
<path fill="#F9F9FE" opacity="1.000000" stroke="none" 
	d="
M619.771423,430.388733 
	C618.384094,428.357666 617.161926,426.647644 615.832031,424.786835 
	C619.416626,422.896973 621.792053,424.201233 623.683838,426.868042 
	C625.734558,429.758820 625.219360,432.391937 622.323486,435.059052 
	C621.468506,433.501129 620.702576,432.105438 619.771423,430.388733 
z"/>
<path fill="#F9F9FE" opacity="1.000000" stroke="none" 
	d="
M736.669434,649.790710 
	C738.068481,649.994019 739.106628,650.196655 741.047424,650.575439 
	C734.228577,652.888245 738.644836,658.412842 735.788818,662.601624 
	C734.566956,658.148682 733.506104,654.282776 732.273254,649.790039 
	C732.867920,649.790039 734.588257,649.790039 736.669434,649.790710 
z"/>
<path fill="#F9F9FE" opacity="1.000000" stroke="none" 
	d="
M654.929688,530.983032 
	C655.207520,531.125732 655.493347,531.288940 655.902039,531.689575 
	C656.046814,531.888733 656.081543,531.832092 656.081543,531.832092 
	C655.796692,531.675842 655.511902,531.519531 655.111206,531.134644 
	C654.995300,530.906006 654.959412,530.965271 654.929688,530.983032 
z"/>
<path fill="#F9F9FE" opacity="1.000000" stroke="none" 
	d="
M656.911377,533.009644 
	C656.673828,532.783386 656.436340,532.557129 656.140137,532.081482 
	C656.081543,531.832092 656.046814,531.888733 656.021118,531.905457 
	C656.240662,532.148254 656.485779,532.374329 656.802917,532.831421 
	C656.874878,533.062378 656.911377,533.009644 656.911377,533.009644 
z"/>
<path fill="#F9F9FE" opacity="1.000000" stroke="none" 
	d="
M656.847534,533.079163 
	C656.820190,533.095947 657.288147,533.169434 657.288147,533.169434 
	C657.288147,533.169434 657.101746,533.172180 657.006592,533.090942 
	C656.911377,533.009644 656.874878,533.062378 656.847534,533.079163 
z"/>
<path fill="#6E6EEB" opacity="1.000000" stroke="none" 
	d="
M606.103638,579.123596 
	C618.359131,568.055237 635.645203,571.871277 640.650452,587.148621 
	C645.994263,603.459290 646.094543,620.257629 640.831787,636.705627 
	C637.675720,646.569702 630.749756,651.086731 620.969421,650.992371 
	C611.224426,650.898315 604.376343,646.183105 601.395447,636.275940 
	C596.697693,620.662537 596.427795,604.791992 600.869019,589.048950 
	C601.832642,585.633179 604.160217,582.602234 606.103638,579.123596 
z"/>
</svg>