<svg version="1.1" id="Layer_1" xmlns="http://www.w3.org/2000/svg" xmlns:xlink="http://www.w3.org/1999/xlink" x="0px" y="0px"
	 width="100%" viewBox="0 0 1080 1080" enable-background="new 0 0 1080 1080" xml:space="preserve">
<path fill="#6D6DEB" opacity="1.000000" stroke="none" 
	d="
M504.000000,1081.000000 
	C336.019318,1081.000000 168.538651,1081.000000 1.028993,1081.000000 
	C1.028993,721.060852 1.028993,361.121735 1.028993,1.091306 
	C360.897552,1.091306 720.795166,1.091306 1080.846436,1.091306 
	C1080.846436,360.999939 1080.846436,720.999939 1080.846436,1081.000000 
	C888.787903,1081.000000 696.643982,1081.000000 504.000000,1081.000000 
M557.241028,689.573120 
	C554.192383,687.127625 551.499817,683.766052 548.025513,682.415588 
	C539.080078,678.938782 529.710754,682.841064 525.949341,690.745117 
	C521.565186,699.957703 524.279785,712.396912 531.756409,717.354797 
	C541.748230,723.980652 555.987610,718.695251 557.712341,707.720398 
	C551.505249,705.282166 550.996277,705.406433 546.969177,710.343567 
	C543.854065,714.162598 538.147888,713.727234 535.750671,709.079895 
	C533.031677,703.808594 533.008240,698.046204 535.363892,692.662170 
	C537.559570,687.643738 544.349365,686.916565 547.099365,691.582336 
	C549.052979,694.896912 551.319458,693.832825 553.808594,693.866943 
	C556.907227,693.909363 557.248047,691.533508 558.862305,689.492493 
	C561.898010,689.543762 562.678101,691.277771 562.643494,694.050537 
	C562.577026,699.363647 562.666565,704.683472 562.867798,709.993896 
	C563.157593,717.640930 566.256531,720.359314 573.920593,719.935364 
	C579.642578,719.618835 580.491272,718.274536 578.301575,712.617920 
	C573.789917,713.700378 572.426636,711.352905 572.555420,707.190247 
	C572.699280,702.542419 572.392090,697.871521 572.740906,693.245300 
	C572.833984,692.010498 574.562805,690.859253 575.622559,689.747864 
	C576.768982,688.545593 578.906433,687.474243 578.959412,686.272888 
	C579.012146,685.077087 577.012146,683.792542 575.915588,682.543823 
	C574.808167,681.282837 573.079590,680.166504 572.737183,678.722595 
	C572.126770,676.148499 572.355286,673.375549 572.198608,669.929077 
	C568.904297,671.901062 566.007019,672.903381 564.234497,674.902893 
	C562.473755,676.889099 562.514893,681.104797 560.575317,682.164917 
	C556.871948,684.189270 559.126343,687.255005 557.241028,689.573120 
M597.954163,641.365173 
	C620.616821,645.266052 634.110535,636.227966 639.170349,613.747131 
	C639.535767,612.123474 639.874329,610.490967 640.145935,608.849365 
	C643.023254,591.463562 641.148865,574.264587 637.567383,557.239807 
	C636.591919,552.602844 638.014282,551.263733 642.049866,549.932312 
	C649.152527,547.589050 656.179749,544.868408 662.944885,541.682373 
	C676.135193,535.470398 688.591248,528.097900 697.708496,516.255432 
	C707.095093,504.063110 707.451111,490.885773 698.425049,478.437408 
	C695.904602,474.961365 692.874207,471.753052 689.648987,468.907928 
	C675.758728,456.654694 659.126038,449.407013 641.809631,443.649109 
	C637.414307,442.187592 636.322815,440.457001 637.257568,435.807281 
	C640.918945,417.595001 642.809387,399.282135 639.006592,380.753082 
	C633.954346,356.135925 616.652832,345.650055 592.773865,353.327759 
	C587.100464,355.151917 581.270447,357.246094 576.344238,360.482178 
	C565.519348,367.593140 555.072021,375.313354 544.807434,383.222015 
	C541.632935,385.667847 539.828796,385.900116 536.937012,383.138855 
	C533.091614,379.467102 528.899292,376.123749 524.640320,372.926697 
	C512.029846,363.460480 498.710266,355.280945 483.011322,351.984833 
	C464.438293,348.085266 450.386902,356.278809 444.465729,374.295074 
	C443.791443,376.346771 443.279053,378.458893 442.807892,380.569000 
	C438.605835,399.387909 440.893372,418.045746 444.558838,436.595581 
	C445.334473,440.520752 444.700012,442.289490 440.771301,443.451294 
	C435.514984,445.005737 430.363831,447.011780 425.325439,449.189178 
	C410.550293,455.574341 396.490265,463.095612 385.753357,475.564972 
	C374.481445,488.655701 373.930145,503.669891 384.954163,516.863281 
	C389.279083,522.039246 394.506561,526.656189 399.964966,530.650330 
	C412.310608,539.684082 426.311279,545.586426 440.814362,550.205505 
	C444.620392,551.417664 445.603760,553.017212 444.915070,557.002014 
	C443.300446,566.344421 441.940186,575.762329 441.140228,585.205933 
	C440.119568,597.255005 441.242096,609.225647 445.286377,620.699951 
	C451.235748,637.579102 463.994751,645.106506 481.592224,642.019348 
	C486.792114,641.107056 491.958740,639.481995 496.860962,637.493958 
	C511.878082,631.404175 524.746277,621.876709 536.621704,611.070923 
	C540.273865,607.747681 542.222778,607.784729 545.933594,611.066528 
	C561.005249,624.395935 577.184082,636.052917 597.954163,641.365173 
M445.124176,673.407471 
	C443.198395,672.160278 441.347412,669.983643 439.334320,669.821716 
	C428.823669,668.976074 418.271820,668.642395 407.222412,668.105774 
	C407.222412,684.822754 407.218781,700.267944 407.224823,715.713135 
	C407.226440,719.874146 410.394165,718.688354 412.649811,718.785645 
	C414.885040,718.882019 417.573181,719.453125 417.510406,715.683655 
	C417.441193,711.525696 417.491760,707.365173 417.530365,703.206116 
	C417.580048,697.862244 419.749756,696.342041 424.591125,698.660522 
	C426.433350,699.542725 428.070587,701.207031 429.334045,702.869873 
	C431.946960,706.308777 434.265686,709.972961 436.670685,713.567688 
	C440.515198,719.314087 444.240387,720.411316 451.884491,717.549011 
	C447.244690,710.620361 442.691559,703.821106 438.153564,697.044495 
	C449.293304,688.447327 450.943573,683.274902 445.124176,673.407471 
M670.587463,714.045654 
	C677.637146,703.508179 674.348206,693.280334 662.468689,689.008972 
	C659.812500,688.053833 657.024719,687.470520 654.341431,686.583374 
	C651.984009,685.803894 649.500610,685.146484 647.413086,683.876099 
	C644.901245,682.347473 644.241516,679.980286 646.652527,677.665222 
	C649.832458,674.611816 658.868286,674.945068 660.707275,678.759705 
	C663.684631,684.935486 668.076721,682.308838 672.520691,682.375061 
	C672.330688,675.411133 669.028137,671.270386 663.540771,669.081482 
	C657.322754,666.601135 650.822571,666.500793 644.486145,668.820862 
	C639.023865,670.820801 635.646973,674.804504 635.160461,680.681885 
	C634.673950,686.560181 637.336365,691.136047 642.416443,693.901672 
	C645.591003,695.630005 649.191162,696.593750 652.632812,697.808838 
	C655.137207,698.692993 657.819153,699.162842 660.200867,700.286255 
	C664.387878,702.261169 664.785095,706.612854 661.265076,709.533875 
	C656.612061,713.395081 648.042847,712.087097 644.857361,707.029480 
	C641.547241,701.774048 639.107300,701.279846 633.463013,704.838562 
	C634.399170,711.453247 637.750061,716.582520 644.236755,718.434570 
	C653.259094,721.010498 662.336243,721.560120 670.587463,714.045654 
M501.833435,681.372620 
	C493.386780,682.642517 490.203766,685.207947 489.246460,691.729980 
	C492.846222,692.599854 496.291412,694.352783 499.407471,690.111206 
	C500.294434,688.903870 503.183105,688.388489 504.879333,688.771423 
	C506.606323,689.161499 507.995026,691.049622 509.531799,692.281738 
	C508.256012,693.347534 507.141937,694.877258 505.673157,695.389343 
	C501.763702,696.752075 497.580353,697.363770 493.730804,698.854736 
	C488.978424,700.695251 487.047089,704.712036 487.429321,709.669861 
	C487.796814,714.436523 490.307159,718.341675 494.976044,719.073303 
	C498.828766,719.677063 502.977051,718.454285 506.985809,717.970215 
	C508.355743,717.804810 509.762512,717.022583 511.043243,717.222290 
	C514.220764,717.718018 517.335327,718.617371 519.499817,719.125610 
	C519.499817,710.024658 519.590149,701.925720 519.474487,693.829712 
	C519.358032,685.674316 515.888733,682.087830 507.714630,681.416626 
	C506.060516,681.280762 504.387848,681.370300 501.833435,681.372620 
M484.055969,693.433105 
	C480.957214,684.572815 474.689117,680.440247 465.815979,681.407471 
	C457.997589,682.259644 451.960815,688.775208 451.267151,697.399353 
	C451.042023,700.197998 451.033661,703.099365 451.506165,705.854248 
	C453.624634,718.206177 467.493591,724.378174 478.095398,717.551147 
	C480.656128,715.902222 482.418884,713.014099 484.548615,710.695862 
	C484.238953,710.230225 483.929291,709.764526 483.619629,709.298828 
	C480.198334,709.653931 476.923950,706.459290 473.192017,710.287476 
	C471.678192,711.840454 468.049408,712.500793 465.821808,711.910706 
	C462.605042,711.058472 461.023651,708.094971 462.022461,703.722900 
	C469.540710,703.722900 477.098602,703.722900 485.354279,703.722900 
	C484.930603,700.041199 484.594879,697.123901 484.055969,693.433105 
M628.105042,694.464722 
	C628.101685,687.647827 627.829346,680.816711 628.189575,674.019043 
	C628.429443,669.491760 626.772217,667.913330 622.483276,668.548584 
	C621.071289,668.757751 619.640686,668.840698 617.833191,669.019470 
	C617.833191,676.689087 617.897766,683.981262 617.811218,691.271667 
	C617.750183,696.415833 617.945374,701.637695 617.073303,706.659363 
	C616.742676,708.563354 613.878479,711.075500 611.916321,711.325378 
	C610.265747,711.535522 607.971924,709.105591 606.492981,707.388000 
	C605.535706,706.276306 605.532715,704.342896 605.060913,702.627991 
	C603.801331,702.691223 602.833313,702.713379 601.869934,702.792358 
	C595.379395,703.324707 594.743591,704.297119 596.788818,710.524048 
	C598.927795,717.036499 603.858521,720.089294 612.006653,719.946167 
	C619.865173,719.808044 625.486084,716.156006 626.963562,709.302368 
	C627.931702,704.811279 627.762756,700.074951 628.105042,694.464722 
z"/>
<path fill="#EEEEF2" opacity="1.000000" stroke="none" 
	d="
M597.547485,641.264221 
	C577.184082,636.052917 561.005249,624.395935 545.933594,611.066528 
	C542.222778,607.784729 540.273865,607.747681 536.621704,611.070923 
	C524.746277,621.876709 511.878082,631.404175 496.860962,637.493958 
	C491.958740,639.481995 486.792114,641.107056 481.592224,642.019348 
	C463.994751,645.106506 451.235748,637.579102 445.286377,620.699951 
	C441.242096,609.225647 440.119568,597.255005 441.140228,585.205933 
	C441.940186,575.762329 443.300446,566.344421 444.915070,557.002014 
	C445.603760,553.017212 444.620392,551.417664 440.814362,550.205505 
	C426.311279,545.586426 412.310608,539.684082 399.964966,530.650330 
	C394.506561,526.656189 389.279083,522.039246 384.954163,516.863281 
	C373.930145,503.669891 374.481445,488.655701 385.753357,475.564972 
	C396.490265,463.095612 410.550293,455.574341 425.325439,449.189178 
	C430.363831,447.011780 435.514984,445.005737 440.771301,443.451294 
	C444.700012,442.289490 445.334473,440.520752 444.558838,436.595581 
	C440.893372,418.045746 438.605835,399.387909 442.807892,380.569000 
	C443.279053,378.458893 443.791443,376.346771 444.465729,374.295074 
	C450.386902,356.278809 464.438293,348.085266 483.011322,351.984833 
	C498.710266,355.280945 512.029846,363.460480 524.640320,372.926697 
	C528.899292,376.123749 533.091614,379.467102 536.937012,383.138855 
	C539.828796,385.900116 541.632935,385.667847 544.807434,383.222015 
	C555.072021,375.313354 565.519348,367.593140 576.344238,360.482178 
	C581.270447,357.246094 587.100464,355.151917 592.773865,353.327759 
	C616.652832,345.650055 633.954346,356.135925 639.006592,380.753082 
	C642.809387,399.282135 640.918945,417.595001 637.257568,435.807281 
	C636.322815,440.457001 637.414307,442.187592 641.809631,443.649109 
	C659.126038,449.407013 675.758728,456.654694 689.648987,468.907928 
	C692.874207,471.753052 695.904602,474.961365 698.425049,478.437408 
	C707.451111,490.885773 707.095093,504.063110 697.708496,516.255432 
	C688.591248,528.097900 676.135193,535.470398 662.944885,541.682373 
	C656.179749,544.868408 649.152527,547.589050 642.049866,549.932312 
	C638.014282,551.263733 636.591919,552.602844 637.567383,557.239807 
	C641.148865,574.264587 643.023254,591.463562 640.145935,608.849365 
	C639.874329,610.490967 639.535767,612.123474 639.170349,613.747131 
	C634.110535,636.227966 620.616821,645.266052 597.547485,641.264221 
M485.352875,506.073242 
	C493.042877,519.124329 500.593170,532.262024 508.569397,545.135803 
	C509.804047,547.128540 512.970459,549.036011 515.276672,549.076111 
	C532.581116,549.376770 549.896606,549.334045 567.200867,548.998901 
	C569.360413,548.957031 572.344971,547.091675 573.471985,545.194763 
	C582.310669,530.317078 590.874817,515.272766 599.259521,500.133606 
	C600.192871,498.448395 600.304749,495.385101 599.391113,493.743835 
	C590.893677,478.478424 582.201965,463.316345 573.225159,448.328827 
	C572.124939,446.491882 569.035950,444.857910 566.840759,444.821747 
	C549.706055,444.539490 532.564087,444.725891 515.425171,444.628662 
	C512.025269,444.609375 509.806885,445.909546 508.142517,448.793823 
	C500.488037,462.058563 492.930969,475.385071 484.970642,488.465271 
	C481.374054,494.375061 480.787354,499.766876 485.352875,506.073242 
M522.768616,603.264771 
	C523.659302,602.511841 524.562012,601.772522 525.438599,601.003540 
	C530.360657,596.685730 530.257202,596.768616 526.006592,591.722351 
	C518.926270,583.316650 512.074585,574.717163 504.920380,566.376099 
	C503.539368,564.765991 501.340698,563.293701 499.300842,562.905701 
	C487.854980,560.728394 476.326263,558.990479 464.862366,556.901855 
	C461.551697,556.298645 459.925293,557.098450 459.299316,560.542358 
	C456.547729,575.679382 454.726624,590.811768 456.963318,606.231506 
	C459.836182,626.036987 469.296997,631.871826 487.994690,624.965698 
	C500.844696,620.219482 511.773346,612.350891 522.768616,603.264771 
M654.697571,464.724670 
	C647.473572,461.911377 640.249634,459.098083 633.138611,456.328796 
	C627.933899,469.911316 622.980652,482.589630 618.310669,495.371460 
	C617.787109,496.804565 618.629578,498.914124 619.246948,500.556519 
	C622.231567,508.496002 625.414429,516.360840 628.406189,524.297791 
	C629.960571,528.421387 631.264465,532.639465 632.951416,537.610352 
	C641.665100,534.036743 650.175903,531.414917 657.799561,527.191772 
	C666.597534,522.318115 675.361938,516.861084 682.784668,510.156006 
	C692.757141,501.147736 692.734314,492.058655 682.563477,483.273712 
	C674.367065,476.194122 664.502625,471.045837 654.697571,464.724670 
M599.349487,433.152740 
	C605.219666,434.318665 611.139404,435.284607 616.941772,436.723907 
	C620.545776,437.617920 622.249084,436.707428 622.717224,433.004639 
	C623.697021,425.256592 625.186890,417.556000 625.803345,409.783264 
	C626.648193,399.131012 626.309937,388.459717 622.664917,378.233612 
	C618.996277,367.941315 612.724731,363.952881 602.204956,366.666107 
	C594.584656,368.631500 587.108948,371.805023 580.146729,375.522339 
	C569.738647,381.079590 560.603333,388.548645 552.017761,397.055145 
	C557.622925,403.626373 563.839905,409.227631 567.938232,416.093506 
	C575.048645,428.005493 585.033875,433.275787 599.349487,433.152740 
M457.712219,480.837311 
	C454.884155,472.912140 452.056091,464.986969 449.086914,456.666351 
	C432.198547,461.744629 416.461182,468.267548 403.123535,479.463989 
	C388.299530,491.908264 388.514404,502.218964 403.519562,514.555420 
	C413.927002,523.111816 425.900757,528.842834 438.446320,533.476135 
	C441.967773,534.776672 445.539185,535.941895 449.229858,537.218384 
	C452.282043,528.585632 454.229736,520.156128 458.125366,512.751526 
	C463.791229,501.982239 464.557800,491.936646 457.712219,480.837311 
M573.531677,571.045288 
	C567.208191,578.551453 560.954102,586.117920 554.516113,593.524597 
	C552.738220,595.570068 552.409729,597.013306 554.586243,598.897644 
	C566.971069,609.619751 579.833679,619.618408 595.546753,625.077759 
	C613.053223,631.160278 622.142334,625.540466 625.060242,607.151306 
	C627.469177,591.969666 625.874756,577.000366 623.211426,562.010498 
	C622.373352,557.293762 620.665466,556.001221 615.924500,557.036316 
	C606.834595,559.021057 597.662415,560.911377 588.423828,561.836792 
	C581.889465,562.491394 577.008545,564.611206 573.531677,571.045288 
M457.005707,420.366425 
	C457.738800,424.628693 458.614014,428.872742 459.162781,433.158600 
	C459.657837,437.024750 461.557465,437.417236 465.038391,436.753601 
	C476.307526,434.605194 487.653229,432.860626 498.951965,430.862000 
	C500.507172,430.586884 502.492401,430.192017 503.384247,429.113220 
	C512.063599,418.614410 520.552429,407.958069 529.606079,396.712463 
	C515.641479,384.346863 501.198242,372.474915 482.484833,367.417389 
	C468.770782,363.710968 461.638000,367.979523 458.021759,381.779999 
	C454.758209,394.234467 455.364014,406.851410 457.005707,420.366425 
M523.973877,427.832550 
	C525.476562,428.158875 526.976440,428.750641 528.482422,428.766510 
	C535.773865,428.843262 543.066833,428.763489 550.359314,428.743256 
	C552.749146,428.736633 555.138977,428.742249 557.528809,428.742249 
	C557.746338,428.288239 557.963867,427.834229 558.181458,427.380188 
	C552.540649,420.907043 546.899841,414.433868 540.670715,407.285583 
	C534.651978,414.499023 529.362671,420.838226 523.973877,427.832550 
M485.879242,447.914581 
	C478.665985,449.321991 471.452728,450.729401 463.589478,452.263611 
	C466.749664,461.306763 469.549591,469.319092 472.799408,478.618805 
	C479.161469,467.536652 484.775085,457.758179 490.738586,447.370270 
	C488.847565,447.557251 487.739685,447.666809 485.879242,447.914581 
M612.159546,523.351990 
	C611.194946,521.006287 610.230347,518.660645 608.880798,515.378967 
	C602.787231,526.070312 597.295288,535.706055 590.992065,546.765137 
	C600.929443,544.812622 609.252563,543.177246 618.257874,541.407898 
	C616.085205,535.001709 614.234375,529.544556 612.159546,523.351990 
M616.676453,456.459106 
	C616.356995,454.929352 616.325806,452.208862 615.674255,452.051178 
	C607.843872,450.156006 599.921631,448.640411 590.741943,446.763733 
	C597.136292,457.701202 602.754028,467.310242 609.163452,478.273346 
	C611.927246,470.263702 614.184998,463.720642 616.676453,456.459106 
M486.166016,538.316833 
	C481.916962,531.020996 477.667877,523.725159 472.753204,515.286438 
	C469.531830,524.701843 466.816742,532.637451 463.778656,541.517029 
	C472.942566,543.267761 481.240753,544.853027 489.538940,546.438354 
	C489.758148,546.033569 489.977386,545.628723 490.196625,545.223877 
	C488.978180,543.133850 487.759766,541.043762 486.166016,538.316833 
M537.002808,581.524353 
	C537.919678,583.120117 538.836548,584.715881 540.289490,587.244690 
	C547.341736,578.975891 552.874512,572.488647 559.089172,565.201965 
	C546.435852,565.201965 535.443848,565.201965 523.006592,565.201965 
	C528.025085,571.073547 532.268372,576.038208 537.002808,581.524353 
z"/>
<path fill="#ECECF1" opacity="1.000000" stroke="none" 
	d="
M445.347107,673.688843 
	C450.943573,683.274902 449.293304,688.447327 438.153564,697.044495 
	C442.691559,703.821106 447.244690,710.620361 451.884491,717.549011 
	C444.240387,720.411316 440.515198,719.314087 436.670685,713.567688 
	C434.265686,709.972961 431.946960,706.308777 429.334045,702.869873 
	C428.070587,701.207031 426.433350,699.542725 424.591125,698.660522 
	C419.749756,696.342041 417.580048,697.862244 417.530365,703.206116 
	C417.491760,707.365173 417.441193,711.525696 417.510406,715.683655 
	C417.573181,719.453125 414.885040,718.882019 412.649811,718.785645 
	C410.394165,718.688354 407.226440,719.874146 407.224823,715.713135 
	C407.218781,700.267944 407.222412,684.822754 407.222412,668.105774 
	C418.271820,668.642395 428.823669,668.976074 439.334320,669.821716 
	C441.347412,669.983643 443.198395,672.160278 445.347107,673.688843 
M436.021057,687.580627 
	C438.946808,682.381714 437.790527,677.733093 432.937836,677.151978 
	C427.976654,676.557861 422.888916,677.020447 417.379639,677.020447 
	C417.379639,680.681824 417.161011,683.653748 417.492462,686.562988 
	C417.616699,687.653564 419.059357,689.497864 419.834442,689.464294 
	C425.041046,689.238647 430.229736,688.599792 436.021057,687.580627 
z"/>
<path fill="#EAEAF1" opacity="1.000000" stroke="none" 
	d="
M670.341675,714.307434 
	C662.336243,721.560120 653.259094,721.010498 644.236755,718.434570 
	C637.750061,716.582520 634.399170,711.453247 633.463013,704.838562 
	C639.107300,701.279846 641.547241,701.774048 644.857361,707.029480 
	C648.042847,712.087097 656.612061,713.395081 661.265076,709.533875 
	C664.785095,706.612854 664.387878,702.261169 660.200867,700.286255 
	C657.819153,699.162842 655.137207,698.692993 652.632812,697.808838 
	C649.191162,696.593750 645.591003,695.630005 642.416443,693.901672 
	C637.336365,691.136047 634.673950,686.560181 635.160461,680.681885 
	C635.646973,674.804504 639.023865,670.820801 644.486145,668.820862 
	C650.822571,666.500793 657.322754,666.601135 663.540771,669.081482 
	C669.028137,671.270386 672.330688,675.411133 672.520691,682.375061 
	C668.076721,682.308838 663.684631,684.935486 660.707275,678.759705 
	C658.868286,674.945068 649.832458,674.611816 646.652527,677.665222 
	C644.241516,679.980286 644.901245,682.347473 647.413086,683.876099 
	C649.500610,685.146484 651.984009,685.803894 654.341431,686.583374 
	C657.024719,687.470520 659.812500,688.053833 662.468689,689.008972 
	C674.348206,693.280334 677.637146,703.508179 670.341675,714.307434 
z"/>
<path fill="#EAEAF1" opacity="1.000000" stroke="none" 
	d="
M502.278595,681.364258 
	C504.387848,681.370300 506.060516,681.280762 507.714630,681.416626 
	C515.888733,682.087830 519.358032,685.674316 519.474487,693.829712 
	C519.590149,701.925720 519.499817,710.024658 519.499817,719.125610 
	C517.335327,718.617371 514.220764,717.718018 511.043243,717.222290 
	C509.762512,717.022583 508.355743,717.804810 506.985809,717.970215 
	C502.977051,718.454285 498.828766,719.677063 494.976044,719.073303 
	C490.307159,718.341675 487.796814,714.436523 487.429321,709.669861 
	C487.047089,704.712036 488.978424,700.695251 493.730804,698.854736 
	C497.580353,697.363770 501.763702,696.752075 505.673157,695.389343 
	C507.141937,694.877258 508.256012,693.347534 509.531830,692.281738 
	C507.995026,691.049622 506.606323,689.161499 504.879333,688.771423 
	C503.183105,688.388489 500.294434,688.903870 499.407471,690.111206 
	C496.291412,694.352783 492.846222,692.599854 489.246460,691.729980 
	C490.203766,685.207947 493.386780,682.642517 502.278595,681.364258 
M509.180176,702.300537 
	C506.434021,702.735352 503.437866,702.643494 501.028198,703.787292 
	C499.378998,704.570068 498.546906,707.074341 497.349518,708.809021 
	C499.352386,710.166321 501.297943,712.554138 503.369873,712.669250 
	C507.870728,712.919556 510.191071,708.856262 509.180176,702.300537 
z"/>
<path fill="#EAEAF1" opacity="1.000000" stroke="none" 
	d="
M484.157562,693.819824 
	C484.594879,697.123901 484.930603,700.041199 485.354279,703.722900 
	C477.098602,703.722900 469.540710,703.722900 462.022461,703.722900 
	C461.023651,708.094971 462.605042,711.058472 465.821808,711.910706 
	C468.049408,712.500793 471.678192,711.840454 473.192017,710.287476 
	C476.923950,706.459290 480.198334,709.653931 483.619629,709.298828 
	C483.929291,709.764526 484.238953,710.230225 484.548615,710.695862 
	C482.418884,713.014099 480.656128,715.902222 478.095398,717.551147 
	C467.493591,724.378174 453.624634,718.206177 451.506165,705.854248 
	C451.033661,703.099365 451.042023,700.197998 451.267151,697.399353 
	C451.960815,688.775208 457.997589,682.259644 465.815979,681.407471 
	C474.689117,680.440247 480.957214,684.572815 484.157562,693.819824 
M462.393066,697.620605 
	C465.522278,697.694458 468.652161,697.747803 471.780548,697.847595 
	C475.301392,697.959961 475.669098,695.987976 474.616089,693.358398 
	C473.257385,689.965332 470.737396,687.625183 466.976196,688.617065 
	C462.877533,689.697998 460.743469,692.651062 462.393066,697.620605 
z"/>
<path fill="#ECECF1" opacity="1.000000" stroke="none" 
	d="
M628.104065,694.956604 
	C627.762756,700.074951 627.931702,704.811279 626.963562,709.302368 
	C625.486084,716.156006 619.865173,719.808044 612.006653,719.946167 
	C603.858521,720.089294 598.927795,717.036499 596.788818,710.524048 
	C594.743591,704.297119 595.379395,703.324707 601.869934,702.792358 
	C602.833313,702.713379 603.801331,702.691223 605.060913,702.627991 
	C605.532715,704.342896 605.535706,706.276306 606.492981,707.388000 
	C607.971924,709.105591 610.265747,711.535522 611.916321,711.325378 
	C613.878479,711.075500 616.742676,708.563354 617.073303,706.659363 
	C617.945374,701.637695 617.750183,696.415833 617.811218,691.271667 
	C617.897766,683.981262 617.833191,676.689087 617.833191,669.019470 
	C619.640686,668.840698 621.071289,668.757751 622.483276,668.548584 
	C626.772217,667.913330 628.429443,669.491760 628.189575,674.019043 
	C627.829346,680.816711 628.101685,687.647827 628.104065,694.956604 
z"/>
<path fill="#EAEAF1" opacity="1.000000" stroke="none" 
	d="
M557.943787,689.420776 
	C557.248047,691.533508 556.907227,693.909363 553.808594,693.866943 
	C551.319458,693.832825 549.052979,694.896912 547.099365,691.582336 
	C544.349365,686.916565 537.559570,687.643738 535.363892,692.662170 
	C533.008240,698.046204 533.031677,703.808594 535.750671,709.079895 
	C538.147888,713.727234 543.854065,714.162598 546.969177,710.343567 
	C550.996277,705.406433 551.505249,705.282166 557.712341,707.720398 
	C555.987610,718.695251 541.748230,723.980652 531.756409,717.354797 
	C524.279785,712.396912 521.565186,699.957703 525.949341,690.745117 
	C529.710754,682.841064 539.080078,678.938782 548.025513,682.415588 
	C551.499817,683.766052 554.192383,687.127625 557.613159,689.525635 
	C557.985229,689.478149 557.943787,689.420776 557.943787,689.420776 
z"/>
<path fill="#ECECF1" opacity="1.000000" stroke="none" 
	d="
M558.403076,689.456665 
	C557.943787,689.420776 557.985229,689.478149 557.997681,689.512573 
	C559.126343,687.255005 556.871948,684.189270 560.575317,682.164917 
	C562.514893,681.104797 562.473755,676.889099 564.234497,674.902893 
	C566.007019,672.903381 568.904297,671.901062 572.198608,669.929077 
	C572.355286,673.375549 572.126770,676.148499 572.737183,678.722595 
	C573.079590,680.166504 574.808167,681.282837 575.915588,682.543823 
	C577.012146,683.792542 579.012146,685.077087 578.959412,686.272888 
	C578.906433,687.474243 576.768982,688.545593 575.622559,689.747864 
	C574.562805,690.859253 572.833984,692.010498 572.740906,693.245300 
	C572.392090,697.871521 572.699280,702.542419 572.555420,707.190247 
	C572.426636,711.352905 573.789917,713.700378 578.301575,712.617920 
	C580.491272,718.274536 579.642578,719.618835 573.920593,719.935364 
	C566.256531,720.359314 563.157593,717.640930 562.867798,709.993896 
	C562.666565,704.683472 562.577026,699.363647 562.643494,694.050537 
	C562.678101,691.277771 561.898010,689.543762 558.403076,689.456665 
z"/>
<path fill="#7070EB" opacity="1.000000" stroke="none" 
	d="
M485.191711,505.737061 
	C480.787354,499.766876 481.374054,494.375061 484.970642,488.465271 
	C492.930969,475.385071 500.488037,462.058563 508.142517,448.793823 
	C509.806885,445.909546 512.025269,444.609375 515.425171,444.628662 
	C532.564087,444.725891 549.706055,444.539490 566.840759,444.821747 
	C569.035950,444.857910 572.124939,446.491882 573.225159,448.328827 
	C582.201965,463.316345 590.893677,478.478424 599.391113,493.743835 
	C600.304749,495.385101 600.192871,498.448395 599.259521,500.133606 
	C590.874817,515.272766 582.310669,530.317078 573.471985,545.194763 
	C572.344971,547.091675 569.360413,548.957031 567.200867,548.998901 
	C549.896606,549.334045 532.581116,549.376770 515.276672,549.076111 
	C512.970459,549.036011 509.804047,547.128540 508.569397,545.135803 
	C500.593170,532.262024 493.042877,519.124329 485.191711,505.737061 
M533.554077,526.349060 
	C550.801880,529.893982 566.071960,520.890808 570.368408,504.643463 
	C574.506226,488.996063 565.854004,472.890045 550.643372,467.925262 
	C534.515320,462.661102 517.106201,471.306427 511.979462,487.125671 
	C506.540466,503.908447 515.274719,520.342041 533.554077,526.349060 
z"/>
<path fill="#6F6FEB" opacity="1.000000" stroke="none" 
	d="
M522.495605,603.493652 
	C511.773346,612.350891 500.844696,620.219482 487.994690,624.965698 
	C469.296997,631.871826 459.836182,626.036987 456.963318,606.231506 
	C454.726624,590.811768 456.547729,575.679382 459.299316,560.542358 
	C459.925293,557.098450 461.551697,556.298645 464.862366,556.901855 
	C476.326263,558.990479 487.854980,560.728394 499.300842,562.905701 
	C501.340698,563.293701 503.539368,564.765991 504.920380,566.376099 
	C512.074585,574.717163 518.926270,583.316650 526.006592,591.722351 
	C530.257202,596.768616 530.360657,596.685730 525.438599,601.003540 
	C524.562012,601.772522 523.659302,602.511841 522.495605,603.493652 
z"/>
<path fill="#6F6FEB" opacity="1.000000" stroke="none" 
	d="
M655.037903,464.882690 
	C664.502625,471.045837 674.367065,476.194122 682.563477,483.273712 
	C692.734314,492.058655 692.757141,501.147736 682.784668,510.156006 
	C675.361938,516.861084 666.597534,522.318115 657.799561,527.191772 
	C650.175903,531.414917 641.665100,534.036743 632.951416,537.610352 
	C631.264465,532.639465 629.960571,528.421387 628.406189,524.297791 
	C625.414429,516.360840 622.231567,508.496002 619.246948,500.556519 
	C618.629578,498.914124 617.787109,496.804565 618.310669,495.371460 
	C622.980652,482.589630 627.933899,469.911316 633.138611,456.328796 
	C640.249634,459.098083 647.473572,461.911377 655.037903,464.882690 
z"/>
<path fill="#6F6FEB" opacity="1.000000" stroke="none" 
	d="
M598.912048,433.108154 
	C585.033875,433.275787 575.048645,428.005493 567.938232,416.093506 
	C563.839905,409.227631 557.622925,403.626373 552.017761,397.055145 
	C560.603333,388.548645 569.738647,381.079590 580.146729,375.522339 
	C587.108948,371.805023 594.584656,368.631500 602.204956,366.666107 
	C612.724731,363.952881 618.996277,367.941315 622.664917,378.233612 
	C626.309937,388.459717 626.648193,399.131012 625.803345,409.783264 
	C625.186890,417.556000 623.697021,425.256592 622.717224,433.004639 
	C622.249084,436.707428 620.545776,437.617920 616.941772,436.723907 
	C611.139404,435.284607 605.219666,434.318665 598.912048,433.108154 
z"/>
<path fill="#6F6FEB" opacity="1.000000" stroke="none" 
	d="
M457.852417,481.198700 
	C464.557800,491.936646 463.791229,501.982239 458.125366,512.751526 
	C454.229736,520.156128 452.282043,528.585632 449.229858,537.218384 
	C445.539185,535.941895 441.967773,534.776672 438.446320,533.476135 
	C425.900757,528.842834 413.927002,523.111816 403.519562,514.555420 
	C388.514404,502.218964 388.299530,491.908264 403.123535,479.463989 
	C416.461182,468.267548 432.198547,461.744629 449.086914,456.666351 
	C452.056091,464.986969 454.884155,472.912140 457.852417,481.198700 
z"/>
<path fill="#6F6FEB" opacity="1.000000" stroke="none" 
	d="
M573.741577,570.756714 
	C577.008545,564.611206 581.889465,562.491394 588.423828,561.836792 
	C597.662415,560.911377 606.834595,559.021057 615.924500,557.036316 
	C620.665466,556.001221 622.373352,557.293762 623.211426,562.010498 
	C625.874756,577.000366 627.469177,591.969666 625.060242,607.151306 
	C622.142334,625.540466 613.053223,631.160278 595.546753,625.077759 
	C579.833679,619.618408 566.971069,609.619751 554.586243,598.897644 
	C552.409729,597.013306 552.738220,595.570068 554.516113,593.524597 
	C560.954102,586.117920 567.208191,578.551453 573.741577,570.756714 
z"/>
<path fill="#6F6FEB" opacity="1.000000" stroke="none" 
	d="
M456.966431,419.919312 
	C455.364014,406.851410 454.758209,394.234467 458.021759,381.779999 
	C461.638000,367.979523 468.770782,363.710968 482.484833,367.417389 
	C501.198242,372.474915 515.641479,384.346863 529.606079,396.712463 
	C520.552429,407.958069 512.063599,418.614410 503.384247,429.113220 
	C502.492401,430.192017 500.507172,430.586884 498.951965,430.862000 
	C487.653229,432.860626 476.307526,434.605194 465.038391,436.753601 
	C461.557465,437.417236 459.657837,437.024750 459.162781,433.158600 
	C458.614014,428.872742 457.738800,424.628693 456.966431,419.919312 
z"/>
<path fill="#7575EB" opacity="1.000000" stroke="none" 
	d="
M524.023621,427.505005 
	C529.362671,420.838226 534.651978,414.499023 540.670715,407.285583 
	C546.899841,414.433868 552.540649,420.907043 558.181458,427.380188 
	C557.963867,427.834229 557.746338,428.288239 557.528809,428.742249 
	C555.138977,428.742249 552.749146,428.736633 550.359314,428.743256 
	C543.066833,428.763489 535.773865,428.843262 528.482422,428.766510 
	C526.976440,428.750641 525.476562,428.158875 524.023621,427.505005 
z"/>
<path fill="#7474EB" opacity="1.000000" stroke="none" 
	d="
M486.255524,447.845459 
	C487.739685,447.666809 488.847565,447.557251 490.738586,447.370270 
	C484.775085,457.758179 479.161469,467.536652 472.799408,478.618805 
	C469.549591,469.319092 466.749664,461.306763 463.589478,452.263611 
	C471.452728,450.729401 478.665985,449.321991 486.255524,447.845459 
z"/>
<path fill="#7474EB" opacity="1.000000" stroke="none" 
	d="
M612.271484,523.719727 
	C614.234375,529.544556 616.085205,535.001709 618.257874,541.407898 
	C609.252563,543.177246 600.929443,544.812622 590.992065,546.765137 
	C597.295288,535.706055 602.787231,526.070312 608.880798,515.378967 
	C610.230347,518.660645 611.194946,521.006287 612.271484,523.719727 
z"/>
<path fill="#7474EB" opacity="1.000000" stroke="none" 
	d="
M616.559570,456.818359 
	C614.184998,463.720642 611.927246,470.263702 609.163452,478.273346 
	C602.754028,467.310242 597.136292,457.701202 590.741943,446.763733 
	C599.921631,448.640411 607.843872,450.156006 615.674255,452.051178 
	C616.325806,452.208862 616.356995,454.929352 616.559570,456.818359 
z"/>
<path fill="#7474EB" opacity="1.000000" stroke="none" 
	d="
M486.353668,538.635254 
	C487.759766,541.043762 488.978180,543.133850 490.196625,545.223877 
	C489.977386,545.628723 489.758148,546.033569 489.538940,546.438354 
	C481.240753,544.853027 472.942566,543.267761 463.778656,541.517029 
	C466.816742,532.637451 469.531830,524.701843 472.753204,515.286438 
	C477.667877,523.725159 481.916962,531.020996 486.353668,538.635254 
z"/>
<path fill="#7272EB" opacity="1.000000" stroke="none" 
	d="
M536.757263,581.263672 
	C532.268372,576.038208 528.025085,571.073547 523.006592,565.201965 
	C535.443848,565.201965 546.435852,565.201965 559.089172,565.201965 
	C552.874512,572.488647 547.341736,578.975891 540.289490,587.244690 
	C538.836548,584.715881 537.919678,583.120117 536.757263,581.263672 
z"/>
<path fill="#7575EB" opacity="1.000000" stroke="none" 
	d="
M435.722656,687.837769 
	C430.229736,688.599792 425.041046,689.238647 419.834442,689.464294 
	C419.059357,689.497864 417.616699,687.653564 417.492462,686.562988 
	C417.161011,683.653748 417.379639,680.681824 417.379639,677.020447 
	C422.888916,677.020447 427.976654,676.557861 432.937836,677.151978 
	C437.790527,677.733093 438.946808,682.381714 435.722656,687.837769 
z"/>
<path fill="#7A7AEC" opacity="1.000000" stroke="none" 
	d="
M509.448853,702.615967 
	C510.191071,708.856262 507.870728,712.919556 503.369873,712.669250 
	C501.297943,712.554138 499.352386,710.166321 497.349518,708.809021 
	C498.546906,707.074341 499.378998,704.570068 501.028198,703.787292 
	C503.437866,702.643494 506.434021,702.735352 509.448853,702.615967 
z"/>
<path fill="#7A7AEC" opacity="1.000000" stroke="none" 
	d="
M462.056305,697.400696 
	C460.743469,692.651062 462.877533,689.697998 466.976196,688.617065 
	C470.737396,687.625183 473.257385,689.965332 474.616089,693.358398 
	C475.669098,695.987976 475.301392,697.959961 471.780548,697.847595 
	C468.652161,697.747803 465.522278,697.694458 462.056305,697.400696 
z"/>
<path fill="#F0F0F2" opacity="1.000000" stroke="none" 
	d="
M533.143799,526.261841 
	C515.274719,520.342041 506.540466,503.908447 511.979462,487.125671 
	C517.106201,471.306427 534.515320,462.661102 550.643372,467.925262 
	C565.854004,472.890045 574.506226,488.996063 570.368408,504.643463 
	C566.071960,520.890808 550.801880,529.893982 533.143799,526.261841 
z"/>
</svg>